<svg width="22" height="24" viewBox="0 0 22 24" fill="none" xmlns="http://www.w3.org/2000/svg">
<g id="Group">
<path id="Vector" d="M17.5039 11.5V5.249C17.504 5.17006 17.4885 5.09189 17.4583 5.01896C17.4281 4.94603 17.3838 4.87978 17.3279 4.824L14.1799 1.676C14.0675 1.56345 13.915 1.50014 13.7559 1.5H2.10391C1.94478 1.5 1.79216 1.56321 1.67964 1.67574C1.56712 1.78826 1.50391 1.94087 1.50391 2.1V20.9C1.50391 21.0591 1.56712 21.2117 1.67964 21.3243C1.79216 21.4368 1.94478 21.5 2.10391 21.5H10.5039M5.50391 9.5H13.5039M5.50391 5.5H9.50391M5.50391 13.5H8.50391" stroke="#17004A" stroke-width="1.5" stroke-linecap="round" stroke-linejoin="round"/>
<path id="Vector_2" d="M13.5039 1.5V4.9C13.5039 5.05913 13.5671 5.21174 13.6796 5.32426C13.7922 5.43679 13.9448 5.5 14.1039 5.5H17.5039M17.4959 14.625L20.0519 15.274C20.3179 15.342 20.5049 15.584 20.4969 15.858C20.3249 21.616 17.0039 22.5 17.0039 22.5C17.0039 22.5 13.6829 21.616 13.5109 15.858C13.5082 15.7247 13.5507 15.5944 13.6315 15.4883C13.7123 15.3823 13.8267 15.3067 13.9559 15.274L16.5119 14.625C16.8349 14.543 17.1729 14.543 17.4959 14.625Z" stroke="#17004A" stroke-width="1.5" stroke-linecap="round" stroke-linejoin="round"/>
</g>
</svg>
