<svg width="25" height="24" viewBox="0 0 25 24" fill="none" xmlns="http://www.w3.org/2000/svg">
<g id="Layer_1" clip-path="url(#clip0_1741_15582)">
<g id="Group">
<path id="Vector" d="M12.5009 5C14.1177 5 15.6022 5.55353 16.7872 6.47406L20.4244 3.00409C18.3097 1.13995 15.5416 0 12.5009 0C7.89331 0 3.89758 2.59991 1.88672 6.40985L5.93115 9.60278C6.91089 6.91937 9.47839 5 12.5009 5Z" fill="#F44336"/>
<path id="Vector_2" d="M24.3961 13.5018C24.4586 13.0102 24.5 12.5087 24.5 12C24.5 11.1422 24.4063 10.3068 24.2352 9.5H12.5V14.5H18.9862C18.4615 15.8638 17.5272 17.0178 16.338 17.8195L20.3975 21.0243C22.5494 19.1354 24.022 16.4904 24.3961 13.5018Z" fill="#2196F3"/>
<path id="Vector_3" d="M5.5 12C5.5 11.1566 5.65686 10.3516 5.93024 9.60278L1.8858 6.40985C1.00433 8.08002 0.5 9.98016 0.5 12C0.5 13.9973 0.995056 15.8763 1.85822 17.533L5.90778 14.3359C5.64844 13.6044 5.5 12.8204 5.5 12Z" fill="#FFC107"/>
<path id="Vector_4" d="M12.4992 19C9.45367 19 6.86963 17.0515 5.90698 14.3359L1.85742 17.533C3.85846 21.3735 7.86902 24 12.4992 24C15.527 24 18.288 22.8752 20.3967 21.0243L16.3372 17.8195C15.2404 18.5589 13.9276 19 12.4992 19Z" fill="#00B060"/>
<path id="Vector_5" opacity="0.1" d="M12.4993 23.75C8.96765 23.75 5.79205 22.2928 3.54688 19.9713C5.74469 22.4378 8.93579 24 12.4993 24C16.0299 24 19.1946 22.4686 21.3875 20.0408C19.1489 22.3246 15.9974 23.75 12.4993 23.75Z" fill="black"/>
<path id="Vector_6" opacity="0.1" d="M12.5 14.25V14.5H18.9862L19.0875 14.25H12.5Z" fill="black"/>
<path id="Vector_7" d="M24.4942 12.147C24.495 12.0978 24.4998 12.0494 24.4998 12C24.4998 11.986 24.4976 11.9725 24.4975 11.9586C24.4968 12.0215 24.4937 12.0838 24.4942 12.147Z" fill="#E6E6E6"/>
<path id="Vector_8" opacity="0.2" d="M12.5 9.5V9.75H24.2856C24.2698 9.66748 24.2526 9.58191 24.2352 9.5H12.5Z" fill="white"/>
<path id="Vector_9" d="M24.2352 9.5H12.5V14.5H18.9862C17.9775 17.1216 15.4772 19 12.5 19C8.63403 19 5.5 15.866 5.5 12C5.5 8.13397 8.63403 5 12.5 5C13.9019 5 15.1939 5.43066 16.2885 6.14069C16.4561 6.24957 16.6289 6.35181 16.7863 6.47406L20.4235 3.00409L20.3414 2.94098C18.2369 1.11707 15.5035 0 12.5 0C5.87256 0 0.5 5.37256 0.5 12C0.5 18.6274 5.87256 24 12.5 24C18.6177 24 23.6555 19.4188 24.3961 13.5018C24.4586 13.0102 24.5 12.5087 24.5 12C24.5 11.1422 24.4063 10.3068 24.2352 9.5Z" fill="url(#paint0_linear_1741_15582)"/>
<path id="Vector_10" opacity="0.1" d="M16.2885 5.89069C15.1939 5.18066 13.9019 4.75 12.5 4.75C8.63403 4.75 5.5 7.88397 5.5 11.75C5.5 11.7922 5.50057 11.8251 5.5013 11.8672C5.56874 8.05951 8.67621 5 12.5 5C13.9019 5 15.1939 5.43066 16.2885 6.14069C16.4561 6.24957 16.6289 6.35181 16.7863 6.47406L20.4235 3.00409L16.7863 6.22406C16.6289 6.10181 16.4561 5.99957 16.2885 5.89069Z" fill="black"/>
<path id="Vector_11" opacity="0.2" d="M12.5 0.25C15.475 0.25 18.1829 1.34839 20.2793 3.1416L20.4235 3.00409L20.3134 2.90827C18.209 1.08436 15.5035 0 12.5 0C5.87256 0 0.5 5.37256 0.5 12C0.5 12.0422 0.505859 12.0829 0.506287 12.125C0.574036 5.55585 5.91473 0.25 12.5 0.25Z" fill="white"/>
</g>
</g>
<defs>
<linearGradient id="paint0_linear_1741_15582" x1="0.5" y1="12" x2="24.5" y2="12" gradientUnits="userSpaceOnUse">
<stop stop-color="white" stop-opacity="0.2"/>
<stop offset="1" stop-color="white" stop-opacity="0"/>
</linearGradient>
<clipPath id="clip0_1741_15582">
<rect width="24" height="24" fill="white" transform="translate(0.5)"/>
</clipPath>
</defs>
</svg>
