<svg width="22" height="16" viewBox="0 0 22 16" fill="none" xmlns="http://www.w3.org/2000/svg">
<path id="Vector" d="M19.5 10.5V12H18V10.5H19.5ZM17.5 5.5H16V5C16 4.20435 16.3161 3.44129 16.8787 2.87868C17.4413 2.31607 18.2044 2 19 2C19.7956 2 20.5587 2.31607 21.1213 2.87868C21.6839 3.44129 22 4.20435 22 5C22 5.97 21.5 6.88 20.71 7.41L20.41 7.6C19.84 8 19.5 8.61 19.5 9.3V9.5H18V9.3C18 8.11 18.6 7 19.59 6.35L19.88 6.16C20.27 5.9 20.5 5.47 20.5 5C20.5 4.60218 20.342 4.22064 20.0607 3.93934C19.7794 3.65804 19.3978 3.5 19 3.5C18.6022 3.5 18.2206 3.65804 17.9393 3.93934C17.658 4.22064 17.5 4.60218 17.5 5V5.5ZM8 9C10.67 9 16 10.34 16 13V16H0V13C0 10.34 5.33 9 8 9ZM8 0C9.06087 0 10.0783 0.421427 10.8284 1.17157C11.5786 1.92172 12 2.93913 12 4C12 5.06087 11.5786 6.07828 10.8284 6.82843C10.0783 7.57857 9.06087 8 8 8C6.93913 8 5.92172 7.57857 5.17157 6.82843C4.42143 6.07828 4 5.06087 4 4C4 2.93913 4.42143 1.92172 5.17157 1.17157C5.92172 0.421427 6.93913 0 8 0ZM8 10.9C5.03 10.9 1.9 12.36 1.9 13V14.1H14.1V13C14.1 12.36 10.97 10.9 8 10.9ZM8 1.9C7.44305 1.9 6.9089 2.12125 6.51508 2.51508C6.12125 2.9089 5.9 3.44305 5.9 4C5.9 4.55695 6.12125 5.0911 6.51508 5.48492C6.9089 5.87875 7.44305 6.1 8 6.1C8.55695 6.1 9.0911 5.87875 9.48492 5.48492C9.87875 5.0911 10.1 4.55695 10.1 4C10.1 3.44305 9.87875 2.9089 9.48492 2.51508C9.0911 2.12125 8.55695 1.9 8 1.9Z" fill="#17004A"/>
</svg>
