<svg width="24" height="24" viewBox="0 0 24 24" fill="none" xmlns="http://www.w3.org/2000/svg">
<g id="wifi_protected_setup">
<g id="Vector">
<path d="M16.7051 5.29L18.9951 3H10.9951V11L13.2951 8.7C15.2651 10.16 16.5451 12.48 16.5451 15.12C16.5451 16.43 16.2251 17.66 15.6651 18.75C17.9951 17.23 19.5451 14.61 19.5451 11.62C19.5451 9.1 18.4351 6.85 16.7051 5.29Z" fill="#17004A"/>
<path d="M7.45508 8.88C7.45508 7.57 7.77508 6.34 8.33508 5.25C5.99508 6.77 4.45508 9.39 4.45508 12.38C4.45508 14.9 5.55508 17.15 7.29508 18.71L4.99508 21H12.9951V13L10.6951 15.3C8.73508 13.84 7.45508 11.52 7.45508 8.88Z" fill="#17004A"/>
</g>
</g>
</svg>
