<svg width="24" height="18" viewBox="0 0 24 18" fill="none" xmlns="http://www.w3.org/2000/svg">
<path id="Vector" d="M23.4844 9.79641L15.6094 17.6714C14.9062 18.3745 13.6875 17.8823 13.6875 16.8745V12.3745H7.3125C6.68906 12.3745 6.1875 11.873 6.1875 11.2495V6.74953C6.1875 6.1261 6.68906 5.62453 7.3125 5.62453H13.6875V1.12453C13.6875 0.121407 14.9016 -0.375468 15.6094 0.327657L23.4844 8.20266C23.9203 8.64328 23.9203 9.35578 23.4844 9.79641ZM9.1875 17.437V15.562C9.1875 15.2527 8.93437 14.9995 8.625 14.9995H4.6875C3.85781 14.9995 3.1875 14.3292 3.1875 13.4995V4.49953C3.1875 3.66984 3.85781 2.99953 4.6875 2.99953H8.625C8.93437 2.99953 9.1875 2.74641 9.1875 2.43703V0.562032C9.1875 0.252657 8.93437 -0.000467879 8.625 -0.000467879H4.6875C2.20312 -0.000467879 0.1875 2.01516 0.1875 4.49953V13.4995C0.1875 15.9839 2.20312 17.9995 4.6875 17.9995H8.625C8.93437 17.9995 9.1875 17.7464 9.1875 17.437Z" fill="#17004A"/>
</svg>
