<svg width="141" height="47" viewBox="0 0 141 47" fill="none" xmlns="http://www.w3.org/2000/svg">
<g id="app-store 1" clip-path="url(#clip0_736_3394)">
<path id="Vector" d="M132.5 0.999512H8.5C4.08172 0.999512 0.5 4.58123 0.5 8.99951V37.9995C0.5 42.4178 4.08172 45.9995 8.5 45.9995H132.5C136.918 45.9995 140.5 42.4178 140.5 37.9995V8.99951C140.5 4.58123 136.918 0.999512 132.5 0.999512Z" fill="black"/>
<path id="Vector_2" d="M35.3693 24.1989C35.3925 22.5006 36.3607 20.8937 37.8966 20.0041C36.9276 18.7005 35.3047 17.874 33.6163 17.8243C31.8154 17.6462 30.0695 18.8394 29.1518 18.8394C28.2163 18.8394 26.8034 17.8419 25.2819 17.8714C23.2987 17.9318 21.4498 18.994 20.4849 20.6274C18.4108 24.0102 19.9579 28.9819 21.9447 31.7164C22.9388 33.0554 24.1005 34.5511 25.6207 34.498C27.1082 34.4399 27.6638 33.6044 29.4594 33.6044C31.2383 33.6044 31.7595 34.498 33.3105 34.4643C34.9067 34.4399 35.9124 33.1194 36.8716 31.7677C37.5858 30.8136 38.1354 29.7592 38.5 28.6434C36.6242 27.896 35.3715 26.1176 35.3693 24.1989Z" fill="white"/>
<path id="Vector_3" d="M32.4399 16.026C33.3102 15.0418 33.739 13.7767 33.6352 12.4995C32.3055 12.6311 31.0773 13.2297 30.1952 14.1762C29.3327 15.1009 28.8838 16.3437 28.9687 17.5722C30.2988 17.5851 31.6064 17.0026 32.4399 16.026Z" fill="white"/>
<path id="Vector_4" d="M50.2298 18.1994V12.6594H51.8298C52.2698 12.6594 52.6398 12.7227 52.9398 12.8494C53.2398 12.9694 53.4831 13.1494 53.6698 13.3894C53.8631 13.6227 53.9998 13.9094 54.0798 14.2494C54.1665 14.5827 54.2098 14.9627 54.2098 15.3894C54.2098 15.8294 54.1631 16.2061 54.0698 16.5194C53.9831 16.8261 53.8698 17.0827 53.7298 17.2894C53.5898 17.4961 53.4298 17.6594 53.2498 17.7794C53.0765 17.8994 52.8998 17.9927 52.7198 18.0594C52.5398 18.1194 52.3698 18.1594 52.2098 18.1794C52.0498 18.1927 51.9165 18.1994 51.8098 18.1994H50.2298ZM49.2798 11.8594V18.9994H51.7298C52.3231 18.9994 52.8365 18.9161 53.2698 18.7494C53.7031 18.5827 54.0598 18.3427 54.3398 18.0294C54.6198 17.7094 54.8265 17.3194 54.9598 16.8594C55.0931 16.3927 55.1598 15.8594 55.1598 15.2594C55.1598 14.1127 54.8631 13.2594 54.2698 12.6994C53.6765 12.1394 52.8298 11.8594 51.7298 11.8594H49.2798ZM56.8008 16.4194C56.8008 16.1061 56.8408 15.8294 56.9208 15.5894C57.0075 15.3427 57.1241 15.1361 57.2708 14.9694C57.4175 14.8027 57.5875 14.6761 57.7808 14.5894C57.9808 14.5027 58.1908 14.4594 58.4108 14.4594C58.6308 14.4594 58.8375 14.5027 59.0308 14.5894C59.2308 14.6761 59.4041 14.8027 59.5508 14.9694C59.6975 15.1361 59.8108 15.3427 59.8908 15.5894C59.9775 15.8294 60.0208 16.1061 60.0208 16.4194C60.0208 16.7327 59.9775 17.0127 59.8908 17.2594C59.8108 17.4994 59.6975 17.7027 59.5508 17.8694C59.4041 18.0294 59.2308 18.1527 59.0308 18.2394C58.8375 18.3261 58.6308 18.3694 58.4108 18.3694C58.1908 18.3694 57.9808 18.3261 57.7808 18.2394C57.5875 18.1527 57.4175 18.0294 57.2708 17.8694C57.1241 17.7027 57.0075 17.4994 56.9208 17.2594C56.8408 17.0127 56.8008 16.7327 56.8008 16.4194ZM55.9008 16.4194C55.9008 16.7994 55.9541 17.1527 56.0608 17.4794C56.1675 17.8061 56.3275 18.0927 56.5408 18.3394C56.7541 18.5794 57.0175 18.7694 57.3308 18.9094C57.6441 19.0427 58.0041 19.1094 58.4108 19.1094C58.8241 19.1094 59.1841 19.0427 59.4908 18.9094C59.8041 18.7694 60.0675 18.5794 60.2808 18.3394C60.4941 18.0927 60.6541 17.8061 60.7608 17.4794C60.8675 17.1527 60.9208 16.7994 60.9208 16.4194C60.9208 16.0394 60.8675 15.6861 60.7608 15.3594C60.6541 15.0261 60.4941 14.7394 60.2808 14.4994C60.0675 14.2527 59.8041 14.0594 59.4908 13.9194C59.1841 13.7794 58.8241 13.7094 58.4108 13.7094C58.0041 13.7094 57.6441 13.7794 57.3308 13.9194C57.0175 14.0594 56.7541 14.2527 56.5408 14.4994C56.3275 14.7394 56.1675 15.0261 56.0608 15.3594C55.9541 15.6861 55.9008 16.0394 55.9008 16.4194ZM67.043 18.9994L68.693 13.8294H67.813L66.653 18.0594H66.633L65.553 13.8294H64.623L63.583 18.0594H63.563L62.393 13.8294H61.453L63.113 18.9994H64.033L65.073 14.8894H65.093L66.143 18.9994H67.043ZM69.5011 13.8294V18.9994H70.3511V16.0794C70.3511 15.8461 70.3811 15.6327 70.4411 15.4394C70.5078 15.2394 70.6045 15.0661 70.7311 14.9194C70.8578 14.7727 71.0145 14.6594 71.2011 14.5794C71.3945 14.4994 71.6211 14.4594 71.8811 14.4594C72.2078 14.4594 72.4645 14.5527 72.6511 14.7394C72.8378 14.9261 72.9311 15.1794 72.9311 15.4994V18.9994H73.7811V15.5994C73.7811 15.3194 73.7511 15.0661 73.6911 14.8394C73.6378 14.6061 73.5411 14.4061 73.4011 14.2394C73.2611 14.0727 73.0778 13.9427 72.8511 13.8494C72.6245 13.7561 72.3411 13.7094 72.0011 13.7094C71.2345 13.7094 70.6745 14.0227 70.3211 14.6494H70.3011V13.8294H69.5011ZM75.1078 11.8594V18.9994H75.9578V11.8594H75.1078ZM77.8946 16.4194C77.8946 16.1061 77.9346 15.8294 78.0146 15.5894C78.1012 15.3427 78.2179 15.1361 78.3646 14.9694C78.5112 14.8027 78.6812 14.6761 78.8746 14.5894C79.0746 14.5027 79.2846 14.4594 79.5046 14.4594C79.7246 14.4594 79.9312 14.5027 80.1246 14.5894C80.3246 14.6761 80.4979 14.8027 80.6446 14.9694C80.7912 15.1361 80.9046 15.3427 80.9846 15.5894C81.0712 15.8294 81.1146 16.1061 81.1146 16.4194C81.1146 16.7327 81.0712 17.0127 80.9846 17.2594C80.9046 17.4994 80.7912 17.7027 80.6446 17.8694C80.4979 18.0294 80.3246 18.1527 80.1246 18.2394C79.9312 18.3261 79.7246 18.3694 79.5046 18.3694C79.2846 18.3694 79.0746 18.3261 78.8746 18.2394C78.6812 18.1527 78.5112 18.0294 78.3646 17.8694C78.2179 17.7027 78.1012 17.4994 78.0146 17.2594C77.9346 17.0127 77.8946 16.7327 77.8946 16.4194ZM76.9946 16.4194C76.9946 16.7994 77.0479 17.1527 77.1546 17.4794C77.2612 17.8061 77.4212 18.0927 77.6346 18.3394C77.8479 18.5794 78.1112 18.7694 78.4246 18.9094C78.7379 19.0427 79.0979 19.1094 79.5046 19.1094C79.9179 19.1094 80.2779 19.0427 80.5846 18.9094C80.8979 18.7694 81.1612 18.5794 81.3746 18.3394C81.5879 18.0927 81.7479 17.8061 81.8546 17.4794C81.9612 17.1527 82.0146 16.7994 82.0146 16.4194C82.0146 16.0394 81.9612 15.6861 81.8546 15.3594C81.7479 15.0261 81.5879 14.7394 81.3746 14.4994C81.1612 14.2527 80.8979 14.0594 80.5846 13.9194C80.2779 13.7794 79.9179 13.7094 79.5046 13.7094C79.0979 13.7094 78.7379 13.7794 78.4246 13.9194C78.1112 14.0594 77.8479 14.2527 77.6346 14.4994C77.4212 14.7394 77.2612 15.0261 77.1546 15.3594C77.0479 15.6861 76.9946 16.0394 76.9946 16.4194ZM87.5968 18.9794C87.4501 19.0661 87.2468 19.1094 86.9868 19.1094C86.7668 19.1094 86.5901 19.0494 86.4568 18.9294C86.3301 18.8027 86.2668 18.5994 86.2668 18.3194C86.0334 18.5994 85.7601 18.8027 85.4468 18.9294C85.1401 19.0494 84.8068 19.1094 84.4468 19.1094C84.2134 19.1094 83.9901 19.0827 83.7768 19.0294C83.5701 18.9761 83.3901 18.8927 83.2368 18.7794C83.0834 18.6661 82.9601 18.5194 82.8668 18.3394C82.7801 18.1527 82.7368 17.9294 82.7368 17.6694C82.7368 17.3761 82.7868 17.1361 82.8868 16.9494C82.9868 16.7627 83.1168 16.6127 83.2768 16.4994C83.4434 16.3794 83.6301 16.2894 83.8368 16.2294C84.0501 16.1694 84.2668 16.1194 84.4868 16.0794C84.7201 16.0327 84.9401 15.9994 85.1468 15.9794C85.3601 15.9527 85.5468 15.9194 85.7068 15.8794C85.8668 15.8327 85.9934 15.7694 86.0868 15.6894C86.1801 15.6027 86.2268 15.4794 86.2268 15.3194C86.2268 15.1327 86.1901 14.9827 86.1168 14.8694C86.0501 14.7561 85.9601 14.6694 85.8468 14.6094C85.7401 14.5494 85.6168 14.5094 85.4768 14.4894C85.3434 14.4694 85.2101 14.4594 85.0768 14.4594C84.7168 14.4594 84.4168 14.5294 84.1768 14.6694C83.9368 14.8027 83.8068 15.0594 83.7868 15.4394H82.9368C82.9501 15.1194 83.0168 14.8494 83.1368 14.6294C83.2568 14.4094 83.4168 14.2327 83.6168 14.0994C83.8168 13.9594 84.0434 13.8594 84.2968 13.7994C84.5568 13.7394 84.8334 13.7094 85.1268 13.7094C85.3601 13.7094 85.5901 13.7261 85.8168 13.7594C86.0501 13.7927 86.2601 13.8627 86.4468 13.9694C86.6334 14.0694 86.7834 14.2127 86.8968 14.3994C87.0101 14.5861 87.0668 14.8294 87.0668 15.1294V17.7894C87.0668 17.9894 87.0768 18.1361 87.0968 18.2294C87.1234 18.3227 87.2034 18.3694 87.3368 18.3694C87.4101 18.3694 87.4968 18.3527 87.5968 18.3194V18.9794ZM86.2168 16.3294C86.1101 16.4094 85.9701 16.4694 85.7968 16.5094C85.6234 16.5427 85.4401 16.5727 85.2468 16.5994C85.0601 16.6194 84.8701 16.6461 84.6768 16.6794C84.4834 16.7061 84.3101 16.7527 84.1568 16.8194C84.0034 16.8861 83.8768 16.9827 83.7768 17.1094C83.6834 17.2294 83.6368 17.3961 83.6368 17.6094C83.6368 17.7494 83.6634 17.8694 83.7168 17.9694C83.7768 18.0627 83.8501 18.1394 83.9368 18.1994C84.0301 18.2594 84.1368 18.3027 84.2568 18.3294C84.3768 18.3561 84.5034 18.3694 84.6368 18.3694C84.9168 18.3694 85.1568 18.3327 85.3568 18.2594C85.5568 18.1794 85.7201 18.0827 85.8468 17.9694C85.9734 17.8494 86.0668 17.7227 86.1268 17.5894C86.1868 17.4494 86.2168 17.3194 86.2168 17.1994V16.3294ZM89.0078 16.4594C89.0078 16.2061 89.0345 15.9594 89.0878 15.7194C89.1412 15.4794 89.2278 15.2661 89.3478 15.0794C89.4678 14.8927 89.6278 14.7427 89.8278 14.6294C90.0278 14.5161 90.2712 14.4594 90.5578 14.4594C90.8512 14.4594 91.1012 14.5161 91.3078 14.6294C91.5145 14.7361 91.6812 14.8794 91.8078 15.0594C91.9412 15.2394 92.0378 15.4494 92.0978 15.6894C92.1578 15.9227 92.1878 16.1661 92.1878 16.4194C92.1878 16.6594 92.1578 16.8961 92.0978 17.1294C92.0445 17.3627 91.9545 17.5727 91.8278 17.7594C91.7012 17.9394 91.5378 18.0861 91.3378 18.1994C91.1378 18.3127 90.8945 18.3694 90.6078 18.3694C90.3345 18.3694 90.0945 18.3161 89.8878 18.2094C89.6878 18.1027 89.5212 17.9594 89.3878 17.7794C89.2612 17.5994 89.1645 17.3961 89.0978 17.1694C89.0378 16.9361 89.0078 16.6994 89.0078 16.4594ZM93.0078 18.9994V11.8594H92.1578V14.5194H92.1378C92.0445 14.3661 91.9278 14.2394 91.7878 14.1394C91.6545 14.0327 91.5112 13.9494 91.3578 13.8894C91.2045 13.8227 91.0512 13.7761 90.8978 13.7494C90.7445 13.7227 90.6012 13.7094 90.4678 13.7094C90.0745 13.7094 89.7278 13.7827 89.4278 13.9294C89.1345 14.0694 88.8878 14.2627 88.6878 14.5094C88.4945 14.7494 88.3478 15.0327 88.2478 15.3594C88.1545 15.6861 88.1078 16.0327 88.1078 16.3994C88.1078 16.7661 88.1578 17.1127 88.2578 17.4394C88.3578 17.7661 88.5045 18.0527 88.6978 18.2994C88.8978 18.5461 89.1445 18.7427 89.4378 18.8894C89.7378 19.0361 90.0878 19.1094 90.4878 19.1094C90.8478 19.1094 91.1778 19.0461 91.4778 18.9194C91.7778 18.7927 91.9978 18.5861 92.1378 18.2994H92.1578V18.9994H93.0078ZM97.7188 16.4194C97.7188 16.1061 97.7588 15.8294 97.8388 15.5894C97.9255 15.3427 98.0421 15.1361 98.1888 14.9694C98.3355 14.8027 98.5055 14.6761 98.6988 14.5894C98.8988 14.5027 99.1088 14.4594 99.3288 14.4594C99.5488 14.4594 99.7555 14.5027 99.9488 14.5894C100.149 14.6761 100.322 14.8027 100.469 14.9694C100.616 15.1361 100.729 15.3427 100.809 15.5894C100.896 15.8294 100.939 16.1061 100.939 16.4194C100.939 16.7327 100.896 17.0127 100.809 17.2594C100.729 17.4994 100.616 17.7027 100.469 17.8694C100.322 18.0294 100.149 18.1527 99.9488 18.2394C99.7555 18.3261 99.5488 18.3694 99.3288 18.3694C99.1088 18.3694 98.8988 18.3261 98.6988 18.2394C98.5055 18.1527 98.3355 18.0294 98.1888 17.8694C98.0421 17.7027 97.9255 17.4994 97.8388 17.2594C97.7588 17.0127 97.7188 16.7327 97.7188 16.4194ZM96.8188 16.4194C96.8188 16.7994 96.8721 17.1527 96.9788 17.4794C97.0855 17.8061 97.2455 18.0927 97.4588 18.3394C97.6721 18.5794 97.9355 18.7694 98.2488 18.9094C98.5621 19.0427 98.9221 19.1094 99.3288 19.1094C99.7421 19.1094 100.102 19.0427 100.409 18.9094C100.722 18.7694 100.986 18.5794 101.199 18.3394C101.412 18.0927 101.572 17.8061 101.679 17.4794C101.786 17.1527 101.839 16.7994 101.839 16.4194C101.839 16.0394 101.786 15.6861 101.679 15.3594C101.572 15.0261 101.412 14.7394 101.199 14.4994C100.986 14.2527 100.722 14.0594 100.409 13.9194C100.102 13.7794 99.7421 13.7094 99.3288 13.7094C98.9221 13.7094 98.5621 13.7794 98.2488 13.9194C97.9355 14.0594 97.6721 14.2527 97.4588 14.4994C97.2455 14.7394 97.0855 15.0261 96.9788 15.3594C96.8721 15.6861 96.8188 16.0394 96.8188 16.4194ZM102.841 13.8294V18.9994H103.691V16.0794C103.691 15.8461 103.721 15.6327 103.781 15.4394C103.848 15.2394 103.945 15.0661 104.071 14.9194C104.198 14.7727 104.355 14.6594 104.541 14.5794C104.735 14.4994 104.961 14.4594 105.221 14.4594C105.548 14.4594 105.805 14.5527 105.991 14.7394C106.178 14.9261 106.271 15.1794 106.271 15.4994V18.9994H107.121V15.5994C107.121 15.3194 107.091 15.0661 107.031 14.8394C106.978 14.6061 106.881 14.4061 106.741 14.2394C106.601 14.0727 106.418 13.9427 106.191 13.8494C105.965 13.7561 105.681 13.7094 105.341 13.7094C104.575 13.7094 104.015 14.0227 103.661 14.6494H103.641V13.8294H102.841ZM112.361 13.8294V12.2794H111.511V13.8294H110.631V14.5794H111.511V17.8694C111.511 18.1094 111.534 18.3027 111.581 18.4494C111.628 18.5961 111.698 18.7094 111.791 18.7894C111.891 18.8694 112.018 18.9261 112.171 18.9594C112.331 18.9861 112.521 18.9994 112.741 18.9994H113.391V18.2494H113.001C112.868 18.2494 112.758 18.2461 112.671 18.2394C112.591 18.2261 112.528 18.2027 112.481 18.1694C112.434 18.1361 112.401 18.0894 112.381 18.0294C112.368 17.9694 112.361 17.8894 112.361 17.7894V14.5794H113.391V13.8294H112.361ZM114.335 11.8594V18.9994H115.185V16.0794C115.185 15.8461 115.215 15.6327 115.275 15.4394C115.342 15.2394 115.439 15.0661 115.565 14.9194C115.692 14.7727 115.849 14.6594 116.035 14.5794C116.229 14.4994 116.455 14.4594 116.715 14.4594C117.042 14.4594 117.299 14.5527 117.485 14.7394C117.672 14.9261 117.765 15.1794 117.765 15.4994V18.9994H118.615V15.5994C118.615 15.3194 118.585 15.0661 118.525 14.8394C118.472 14.6061 118.375 14.4061 118.235 14.2394C118.095 14.0727 117.912 13.9427 117.685 13.8494C117.459 13.7561 117.175 13.7094 116.835 13.7094C116.682 13.7094 116.522 13.7261 116.355 13.7594C116.195 13.7927 116.039 13.8461 115.885 13.9194C115.739 13.9861 115.605 14.0761 115.485 14.1894C115.365 14.2961 115.272 14.4294 115.205 14.5894H115.185V11.8594H114.335ZM123.482 15.9194H120.512C120.525 15.7194 120.569 15.5327 120.642 15.3594C120.715 15.1794 120.815 15.0227 120.942 14.8894C121.069 14.7561 121.219 14.6527 121.392 14.5794C121.572 14.4994 121.772 14.4594 121.992 14.4594C122.205 14.4594 122.399 14.4994 122.572 14.5794C122.752 14.6527 122.905 14.7561 123.032 14.8894C123.165 15.0161 123.269 15.1694 123.342 15.3494C123.422 15.5294 123.469 15.7194 123.482 15.9194ZM124.302 17.3594H123.462C123.389 17.6994 123.235 17.9527 123.002 18.1194C122.775 18.2861 122.482 18.3694 122.122 18.3694C121.842 18.3694 121.599 18.3227 121.392 18.2294C121.185 18.1361 121.015 18.0127 120.882 17.8594C120.749 17.6994 120.652 17.5194 120.592 17.3194C120.532 17.1127 120.505 16.8961 120.512 16.6694H124.382C124.395 16.3561 124.365 16.0261 124.292 15.6794C124.225 15.3327 124.099 15.0127 123.912 14.7194C123.732 14.4261 123.489 14.1861 123.182 13.9994C122.882 13.8061 122.502 13.7094 122.042 13.7094C121.689 13.7094 121.362 13.7761 121.062 13.9094C120.769 14.0427 120.512 14.2294 120.292 14.4694C120.079 14.7094 119.912 14.9927 119.792 15.3194C119.672 15.6461 119.612 16.0061 119.612 16.3994C119.625 16.7927 119.682 17.1561 119.782 17.4894C119.889 17.8227 120.045 18.1094 120.252 18.3494C120.459 18.5894 120.712 18.7761 121.012 18.9094C121.319 19.0427 121.679 19.1094 122.092 19.1094C122.679 19.1094 123.165 18.9627 123.552 18.6694C123.939 18.3761 124.189 17.9394 124.302 17.3594Z" fill="white"/>
<path id="Vector_5" d="M52.2379 25.0036H54.0999L57.9499 34.9996H56.0739L55.1359 32.3536H51.1459L50.2079 34.9996H48.4019L52.2379 25.0036ZM51.6219 31.0236H54.6739L53.1759 26.7256H53.1339L51.6219 31.0236ZM58.7198 27.7616H60.2318V28.7416H60.2598C60.4838 28.3216 60.7965 28.0229 61.1978 27.8456C61.5991 27.6589 62.0331 27.5656 62.4998 27.5656C63.0691 27.5656 63.5638 27.6683 63.9838 27.8736C64.4131 28.0696 64.7678 28.3449 65.0478 28.6996C65.3278 29.0449 65.5378 29.4509 65.6778 29.9176C65.8178 30.3843 65.8878 30.8836 65.8878 31.4156C65.8878 31.9009 65.8225 32.3723 65.6918 32.8296C65.5705 33.2869 65.3791 33.6929 65.1178 34.0476C64.8658 34.3929 64.5438 34.6729 64.1518 34.8876C63.7598 35.0929 63.2978 35.1956 62.7658 35.1956C62.5325 35.1956 62.2991 35.1723 62.0658 35.1256C61.8325 35.0883 61.6085 35.0229 61.3938 34.9296C61.1791 34.8363 60.9785 34.7196 60.7918 34.5796C60.6145 34.4303 60.4651 34.2576 60.3438 34.0616H60.3158V37.6736H58.7198V27.7616ZM64.2918 31.3876C64.2918 31.0609 64.2498 30.7436 64.1658 30.4356C64.0818 30.1276 63.9558 29.8569 63.7878 29.6236C63.6198 29.3809 63.4098 29.1896 63.1578 29.0496C62.9058 28.9003 62.6165 28.8256 62.2898 28.8256C61.6178 28.8256 61.1091 29.0589 60.7638 29.5256C60.4278 29.9923 60.2598 30.6129 60.2598 31.3876C60.2598 31.7516 60.3018 32.0923 60.3858 32.4096C60.4791 32.7176 60.6145 32.9836 60.7918 33.2076C60.9691 33.4316 61.1791 33.6089 61.4218 33.7396C61.6738 33.8703 61.9631 33.9356 62.2898 33.9356C62.6538 33.9356 62.9618 33.8609 63.2138 33.7116C63.4658 33.5623 63.6711 33.3709 63.8298 33.1376C63.9978 32.8949 64.1145 32.6243 64.1798 32.3256C64.2545 32.0176 64.2918 31.7049 64.2918 31.3876ZM67.2784 27.7616H68.7904V28.7416H68.8184C69.0424 28.3216 69.3551 28.0229 69.7564 27.8456C70.1577 27.6589 70.5917 27.5656 71.0584 27.5656C71.6277 27.5656 72.1224 27.6683 72.5424 27.8736C72.9717 28.0696 73.3264 28.3449 73.6064 28.6996C73.8864 29.0449 74.0964 29.4509 74.2364 29.9176C74.3764 30.3843 74.4464 30.8836 74.4464 31.4156C74.4464 31.9009 74.3811 32.3723 74.2504 32.8296C74.1291 33.2869 73.9377 33.6929 73.6764 34.0476C73.4244 34.3929 73.1024 34.6729 72.7104 34.8876C72.3184 35.0929 71.8564 35.1956 71.3244 35.1956C71.0911 35.1956 70.8577 35.1723 70.6244 35.1256C70.3911 35.0883 70.1671 35.0229 69.9524 34.9296C69.7377 34.8363 69.5371 34.7196 69.3504 34.5796C69.1731 34.4303 69.0237 34.2576 68.9024 34.0616H68.8744V37.6736H67.2784V27.7616ZM72.8504 31.3876C72.8504 31.0609 72.8084 30.7436 72.7244 30.4356C72.6404 30.1276 72.5144 29.8569 72.3464 29.6236C72.1784 29.3809 71.9684 29.1896 71.7164 29.0496C71.4644 28.9003 71.1751 28.8256 70.8484 28.8256C70.1764 28.8256 69.6677 29.0589 69.3224 29.5256C68.9864 29.9923 68.8184 30.6129 68.8184 31.3876C68.8184 31.7516 68.8604 32.0923 68.9444 32.4096C69.0377 32.7176 69.1731 32.9836 69.3504 33.2076C69.5277 33.4316 69.7377 33.6089 69.9804 33.7396C70.2324 33.8703 70.5217 33.9356 70.8484 33.9356C71.2124 33.9356 71.5204 33.8609 71.7724 33.7116C72.0244 33.5623 72.2297 33.3709 72.3884 33.1376C72.5564 32.8949 72.6731 32.6243 72.7384 32.3256C72.8131 32.0176 72.8504 31.7049 72.8504 31.3876ZM81.0635 31.6676C81.0635 32.0503 81.1288 32.3769 81.2595 32.6476C81.3901 32.9183 81.5721 33.1423 81.8055 33.3196C82.0388 33.4876 82.3048 33.6136 82.6035 33.6976C82.9115 33.7723 83.2428 33.8096 83.5975 33.8096C83.9801 33.8096 84.3068 33.7676 84.5775 33.6836C84.8481 33.5903 85.0675 33.4736 85.2355 33.3336C85.4035 33.1936 85.5248 33.0349 85.5995 32.8576C85.6741 32.6709 85.7115 32.4843 85.7115 32.2976C85.7115 31.9149 85.6228 31.6349 85.4455 31.4576C85.2775 31.2709 85.0908 31.1403 84.8855 31.0656C84.5308 30.9349 84.1155 30.8136 83.6395 30.7016C83.1728 30.5803 82.5941 30.4263 81.9035 30.2396C81.4741 30.1276 81.1148 29.9829 80.8255 29.8056C80.5455 29.6189 80.3215 29.4136 80.1535 29.1896C79.9855 28.9656 79.8641 28.7276 79.7895 28.4756C79.7241 28.2236 79.6915 27.9669 79.6915 27.7056C79.6915 27.2016 79.7941 26.7676 79.9995 26.4036C80.2141 26.0303 80.4941 25.7223 80.8395 25.4796C81.1848 25.2369 81.5768 25.0596 82.0155 24.9476C82.4541 24.8263 82.8974 24.7656 83.3455 24.7656C83.868 24.7656 84.3581 24.8356 84.8155 24.9756C85.2821 25.1063 85.6881 25.3069 86.0335 25.5776C86.3881 25.8483 86.6681 26.1843 86.8735 26.5856C87.0788 26.9776 87.1815 27.4349 87.1815 27.9576H85.4315C85.3848 27.3136 85.1655 26.8609 84.7735 26.5996C84.3815 26.3289 83.8821 26.1936 83.2755 26.1936C83.0701 26.1936 82.8601 26.2169 82.6455 26.2636C82.4308 26.3009 82.2348 26.3709 82.0575 26.4736C81.8801 26.5669 81.7308 26.6976 81.6095 26.8656C81.4975 27.0336 81.4415 27.2436 81.4415 27.4956C81.4415 27.8503 81.5488 28.1303 81.7635 28.3356C81.9875 28.5316 82.2768 28.6809 82.6315 28.7836C82.6688 28.7929 82.8135 28.8349 83.0655 28.9096C83.3268 28.9749 83.6161 29.0496 83.9335 29.1336C84.2508 29.2176 84.5588 29.3016 84.8575 29.3856C85.1655 29.4603 85.3848 29.5163 85.5155 29.5536C85.8421 29.6563 86.1268 29.7963 86.3695 29.9736C86.6121 30.1509 86.8128 30.3563 86.9715 30.5896C87.1395 30.8136 87.2608 31.0563 87.3355 31.3176C87.4195 31.5789 87.4615 31.8403 87.4615 32.1016C87.4615 32.6616 87.3448 33.1423 87.1115 33.5436C86.8875 33.9356 86.5888 34.2576 86.2155 34.5096C85.8421 34.7616 85.4175 34.9436 84.9415 35.0556C84.4655 35.1769 83.9801 35.2376 83.4855 35.2376C82.9161 35.2376 82.3795 35.1676 81.8755 35.0276C81.3715 34.8876 80.9328 34.6729 80.5595 34.3836C80.1861 34.0943 79.8875 33.7256 79.6635 33.2776C79.4395 32.8203 79.3228 32.2836 79.3135 31.6676H81.0635ZM88.0416 27.7616H89.2456V25.5916H90.8416V27.7616H92.2836V28.9516H90.8416V32.8156C90.8416 32.9836 90.8463 33.1283 90.8556 33.2496C90.8743 33.3709 90.9069 33.4736 90.9536 33.5576C91.0096 33.6416 91.0889 33.7069 91.1916 33.7536C91.2943 33.7909 91.4343 33.8096 91.6116 33.8096C91.7236 33.8096 91.8356 33.8096 91.9476 33.8096C92.0596 33.8003 92.1716 33.7816 92.2836 33.7536V34.9856C92.1063 35.0043 91.9336 35.0229 91.7656 35.0416C91.5976 35.0603 91.4249 35.0696 91.2476 35.0696C90.8276 35.0696 90.4869 35.0323 90.2256 34.9576C89.9736 34.8736 89.7729 34.7569 89.6236 34.6076C89.4836 34.4489 89.3856 34.2529 89.3296 34.0196C89.2829 33.7863 89.2549 33.5203 89.2456 33.2216V28.9516H88.0416V27.7616ZM96.7497 35.1956C96.171 35.1956 95.653 35.1023 95.1957 34.9156C94.7477 34.7196 94.365 34.4536 94.0477 34.1176C93.7397 33.7816 93.5017 33.3803 93.3337 32.9136C93.175 32.4469 93.0957 31.9336 93.0957 31.3736C93.0957 30.8229 93.175 30.3143 93.3337 29.8476C93.5017 29.3809 93.7397 28.9796 94.0477 28.6436C94.365 28.3076 94.7477 28.0463 95.1957 27.8596C95.653 27.6636 96.171 27.5656 96.7497 27.5656C97.3284 27.5656 97.8417 27.6636 98.2897 27.8596C98.747 28.0463 99.1297 28.3076 99.4377 28.6436C99.755 28.9796 99.993 29.3809 100.152 29.8476C100.32 30.3143 100.404 30.8229 100.404 31.3736C100.404 31.9336 100.32 32.4469 100.152 32.9136C99.993 33.3803 99.755 33.7816 99.4377 34.1176C99.1297 34.4536 98.747 34.7196 98.2897 34.9156C97.8417 35.1023 97.3284 35.1956 96.7497 35.1956ZM96.7497 33.9356C97.1044 33.9356 97.4124 33.8609 97.6737 33.7116C97.935 33.5623 98.1497 33.3663 98.3177 33.1236C98.4857 32.8809 98.607 32.6103 98.6817 32.3116C98.7657 32.0036 98.8077 31.6909 98.8077 31.3736C98.8077 31.0656 98.7657 30.7576 98.6817 30.4496C98.607 30.1416 98.4857 29.8709 98.3177 29.6376C98.1497 29.3949 97.935 29.1989 97.6737 29.0496C97.4124 28.9003 97.1044 28.8256 96.7497 28.8256C96.395 28.8256 96.087 28.9003 95.8257 29.0496C95.5644 29.1989 95.3497 29.3949 95.1817 29.6376C95.0137 29.8709 94.8877 30.1416 94.8037 30.4496C94.729 30.7576 94.6917 31.0656 94.6917 31.3736C94.6917 31.6909 94.729 32.0036 94.8037 32.3116C94.8877 32.6103 95.0137 32.8809 95.1817 33.1236C95.3497 33.3663 95.5644 33.5623 95.8257 33.7116C96.087 33.8609 96.395 33.9356 96.7497 33.9356ZM101.731 27.7616H103.229V29.1616H103.257C103.303 28.9656 103.392 28.7743 103.523 28.5876C103.663 28.4009 103.826 28.2329 104.013 28.0836C104.209 27.9249 104.423 27.7989 104.657 27.7056C104.89 27.6123 105.128 27.5656 105.371 27.5656C105.557 27.5656 105.683 27.5703 105.749 27.5796C105.823 27.5889 105.898 27.5983 105.973 27.6076V29.1476C105.861 29.1289 105.744 29.1149 105.623 29.1056C105.511 29.0869 105.399 29.0776 105.287 29.0776C105.016 29.0776 104.759 29.1336 104.517 29.2456C104.283 29.3483 104.078 29.5069 103.901 29.7216C103.723 29.9269 103.583 30.1836 103.481 30.4916C103.378 30.7996 103.327 31.1543 103.327 31.5556V34.9996H101.731V27.7616ZM111.376 30.7436C111.358 30.4916 111.302 30.2489 111.208 30.0156C111.124 29.7823 111.003 29.5816 110.844 29.4136C110.695 29.2363 110.508 29.0963 110.284 28.9936C110.07 28.8816 109.827 28.8256 109.556 28.8256C109.276 28.8256 109.02 28.8769 108.786 28.9796C108.562 29.0729 108.366 29.2083 108.198 29.3856C108.04 29.5536 107.909 29.7543 107.806 29.9876C107.713 30.2209 107.662 30.4729 107.652 30.7436H111.376ZM107.652 31.7936C107.652 32.0736 107.69 32.3443 107.764 32.6056C107.848 32.8669 107.97 33.0956 108.128 33.2916C108.287 33.4876 108.488 33.6463 108.73 33.7676C108.973 33.8796 109.262 33.9356 109.598 33.9356C110.065 33.9356 110.438 33.8376 110.718 33.6416C111.008 33.4363 111.222 33.1329 111.362 32.7316H112.874C112.79 33.1236 112.646 33.4736 112.44 33.7816C112.235 34.0896 111.988 34.3509 111.698 34.5656C111.409 34.7709 111.082 34.9249 110.718 35.0276C110.364 35.1396 109.99 35.1956 109.598 35.1956C109.029 35.1956 108.525 35.1023 108.086 34.9156C107.648 34.7289 107.274 34.4676 106.966 34.1316C106.668 33.7956 106.439 33.3943 106.28 32.9276C106.131 32.4609 106.056 31.9476 106.056 31.3876C106.056 30.8743 106.136 30.3889 106.294 29.9316C106.462 29.4649 106.696 29.0589 106.994 28.7136C107.302 28.3589 107.671 28.0789 108.1 27.8736C108.53 27.6683 109.015 27.5656 109.556 27.5656C110.126 27.5656 110.634 27.6869 111.082 27.9296C111.54 28.1629 111.918 28.4756 112.216 28.8676C112.515 29.2596 112.73 29.7123 112.86 30.2256C113 30.7296 113.038 31.2523 112.972 31.7936H107.652Z" fill="white"/>
</g>
<defs>
<clipPath id="clip0_736_3394">
<rect width="140" height="46" fill="white" transform="translate(0.5 0.499512)"/>
</clipPath>
</defs>
</svg>
