<svg width="48" height="49" viewBox="0 0 48 49" fill="none" xmlns="http://www.w3.org/2000/svg">
<g id="Communication / Bell_Notification">
<path id="Vector" d="M29.9961 34.5007V36.5007C29.9961 39.8144 27.3098 42.5007 23.9961 42.5007C20.6824 42.5007 17.9961 39.8144 17.9961 36.5007V34.5009M29.9961 34.5007L17.9961 34.5009M29.9961 34.5007H37.9961C39.1007 34.5007 39.9961 33.6053 39.9961 32.5007V31.3289C39.9961 30.7985 39.7852 30.29 39.4102 29.9148L38.3887 28.8933C38.1373 28.6419 37.9961 28.3007 37.9961 27.9451V20.5007C37.9961 20.1479 37.9834 19.7978 37.957 19.4529M17.9961 34.5009L9.99609 34.501C8.89153 34.501 7.99609 33.6049 7.99609 32.5003V31.3289C7.99609 30.7985 8.20697 30.2906 8.58203 29.9154L9.60352 28.8924C9.85488 28.641 9.99609 28.3012 9.99609 27.9456V20.5007C9.99609 12.7688 16.2641 6.50073 23.9961 6.50073C25.4193 6.50073 26.7929 6.7131 28.087 7.10787M37.957 19.4529C40.3698 18.0753 41.9961 15.478 41.9961 12.5007C41.9961 8.08245 38.4144 4.50073 33.9961 4.50073C31.6556 4.50073 29.5499 5.5058 28.087 7.10787M37.957 19.4529C36.7892 20.1197 35.4371 20.5007 33.9961 20.5007C29.5778 20.5007 25.9961 16.919 25.9961 12.5007C25.9961 10.4229 26.7882 8.53014 28.087 7.10787M37.957 19.4529C37.957 19.4529 37.957 19.4529 37.957 19.4529ZM28.087 7.10787C28.0879 7.10816 28.0888 7.10844 28.0898 7.10872" stroke="#17004A" stroke-width="3" stroke-linecap="round" stroke-linejoin="round"/>
</g>
</svg>
