<svg width="24" height="25" viewBox="0 0 24 25" fill="none" xmlns="http://www.w3.org/2000/svg">
<g id="logos:facebook" clip-path="url(#clip0_736_3418)">
<path id="Vector" d="M24 12.4995C24 5.87214 18.6274 0.499512 12 0.499512C5.37262 0.499512 0 5.87214 0 12.4995C0 18.489 4.38825 23.4535 10.125 24.3537V15.9683H7.07812V12.4995H10.125V9.85576C10.125 6.84826 11.9166 5.18701 14.6576 5.18701C15.9705 5.18701 17.3438 5.42139 17.3438 5.42139V8.37451H15.8306C14.3399 8.37451 13.875 9.29954 13.875 10.2486V12.4995H17.2031L16.6711 15.9683H13.875V24.3537C19.6117 23.4535 24 18.4891 24 12.4995Z" fill="#1877F2"/>
<path id="Vector_2" d="M16.6711 15.9683L17.2031 12.4995H13.875V10.2486C13.875 9.29945 14.3399 8.37451 15.8306 8.37451H17.3438V5.42139C17.3438 5.42139 15.9705 5.18701 14.6575 5.18701C11.9166 5.18701 10.125 6.84826 10.125 9.85576V12.4995H7.07812V15.9683H10.125V24.3537C10.7453 24.4509 11.3722 24.4997 12 24.4995C12.6278 24.4997 13.2547 24.451 13.875 24.3537V15.9683H16.6711Z" fill="white"/>
</g>
<defs>
<clipPath id="clip0_736_3418">
<rect width="24" height="24" fill="white" transform="translate(0 0.499512)"/>
</clipPath>
</defs>
</svg>
