<svg width="61" height="61" viewBox="0 0 61 61" fill="none" xmlns="http://www.w3.org/2000/svg">
<g id="fluent:payment-20-regular">
<path id="Vector" d="M41 39.5C40.6022 39.5 40.2206 39.658 39.9393 39.9393C39.658 40.2206 39.5 40.6022 39.5 41C39.5 41.3978 39.658 41.7794 39.9393 42.0607C40.2206 42.342 40.6022 42.5 41 42.5H47C47.3978 42.5 47.7794 42.342 48.0607 42.0607C48.342 41.7794 48.5 41.3978 48.5 41C48.5 40.6022 48.342 40.2206 48.0607 39.9393C47.7794 39.658 47.3978 39.5 47 39.5H41ZM6.5 20.75C6.5 18.562 7.36919 16.4635 8.91637 14.9164C10.4635 13.3692 12.562 12.5 14.75 12.5H46.25C48.438 12.5 50.5365 13.3692 52.0836 14.9164C53.6308 16.4635 54.5 18.562 54.5 20.75V40.25C54.5 42.438 53.6308 44.5365 52.0836 46.0836C50.5365 47.6308 48.438 48.5 46.25 48.5H14.75C12.562 48.5 10.4635 47.6308 8.91637 46.0836C7.36919 44.5365 6.5 42.438 6.5 40.25V20.75ZM14.75 15.5C13.3576 15.5 12.0223 16.0531 11.0377 17.0377C10.0531 18.0223 9.5 19.3576 9.5 20.75V24.5H51.5V20.75C51.5 19.3576 50.9469 18.0223 49.9623 17.0377C48.9777 16.0531 47.6424 15.5 46.25 15.5H14.75ZM51.5 27.5H9.5V40.25C9.5 43.148 11.852 45.5 14.75 45.5H46.25C47.6424 45.5 48.9777 44.9469 49.9623 43.9623C50.9469 42.9777 51.5 41.6424 51.5 40.25V27.5Z" fill="#17004A"/>
</g>
</svg>
