<svg width="149" height="47" viewBox="0 0 149 47" fill="none" xmlns="http://www.w3.org/2000/svg">
<g id="google-play 1" clip-path="url(#clip0_736_3384)">
<path id="Vector" d="M140.5 0.999512H8.5C4.08172 0.999512 0.5 4.58123 0.5 8.99951V37.9995C0.5 42.4178 4.08172 45.9995 8.5 45.9995H140.5C144.918 45.9995 148.5 42.4178 148.5 37.9995V8.99951C148.5 4.58123 144.918 0.999512 140.5 0.999512Z" fill="black"/>
<g id="Group" filter="url(#filter0_dd_736_3384)">
<path id="Vector_2" d="M18.901 13.8082C18.649 14.0477 18.5 14.4194 18.5 14.9007V32.0976C18.5 32.5797 18.649 32.9506 18.901 33.1901L18.9651 33.2461L29.6963 23.6127V23.4992V23.3856L18.9651 13.7515L18.901 13.8082Z" fill="url(#paint0_linear_736_3384)"/>
<path id="Vector_3" d="M33.2727 26.8249L29.6963 23.6128V23.4992V23.3857L33.2736 20.1743L33.3542 20.2155L37.5924 22.3772C38.8025 22.9946 38.8025 24.0047 37.5924 24.6228L33.3542 26.7845L33.2727 26.8249Z" fill="url(#paint1_linear_736_3384)"/>
<g id="Group_2" filter="url(#filter1_d_736_3384)">
<path id="Vector_4" d="M33.3541 26.784L29.6953 23.4995L18.9009 33.1905C19.2993 33.5699 19.9585 33.6166 20.7008 33.2387L33.3541 26.784Z" fill="url(#paint2_linear_736_3384)"/>
</g>
<path id="Vector_5" d="M33.3541 20.2147L20.7008 13.7608C19.9585 13.3821 19.2993 13.4296 18.9009 13.809L29.6962 23.5L33.3541 20.2147Z" fill="url(#paint3_linear_736_3384)"/>
</g>
<path id="Vector_6" d="M54.6202 18.1095L54.8702 18.9995H55.4702V15.2395H52.3402V16.0395H54.6202C54.6335 16.3662 54.5902 16.6728 54.4902 16.9595C54.3902 17.2395 54.2402 17.4862 54.0402 17.6995C53.8469 17.9062 53.6069 18.0695 53.3202 18.1895C53.0335 18.3095 52.7035 18.3695 52.3302 18.3695C51.9302 18.3695 51.5769 18.2928 51.2702 18.1395C50.9702 17.9795 50.7169 17.7695 50.5102 17.5095C50.3035 17.2428 50.1469 16.9395 50.0402 16.5995C49.9335 16.2528 49.8802 15.8928 49.8802 15.5195C49.8802 15.1395 49.9269 14.7695 50.0202 14.4095C50.1135 14.0428 50.2569 13.7195 50.4502 13.4395C50.6502 13.1528 50.9035 12.9228 51.2102 12.7495C51.5235 12.5762 51.8969 12.4895 52.3302 12.4895C52.5969 12.4895 52.8469 12.5228 53.0802 12.5895C53.3202 12.6495 53.5335 12.7428 53.7202 12.8695C53.9069 12.9962 54.0635 13.1595 54.1902 13.3595C54.3169 13.5528 54.4035 13.7862 54.4502 14.0595H55.4002C55.3335 13.6395 55.2069 13.2828 55.0202 12.9895C54.8402 12.6895 54.6135 12.4428 54.3402 12.2495C54.0735 12.0562 53.7669 11.9162 53.4202 11.8295C53.0802 11.7362 52.7169 11.6895 52.3302 11.6895C51.7635 11.6895 51.2669 11.7962 50.8402 12.0095C50.4202 12.2162 50.0669 12.4962 49.7802 12.8495C49.5002 13.2028 49.2869 13.6162 49.1402 14.0895C49.0002 14.5562 48.9302 15.0495 48.9302 15.5695C48.9302 16.0362 49.0069 16.4862 49.1602 16.9195C49.3135 17.3528 49.5369 17.7362 49.8302 18.0695C50.1235 18.4028 50.4802 18.6695 50.9002 18.8695C51.3202 19.0628 51.7969 19.1595 52.3302 19.1595C52.7502 19.1595 53.1669 19.0795 53.5802 18.9195C53.9935 18.7528 54.3402 18.4828 54.6202 18.1095ZM60.3181 15.9195H57.3481C57.3614 15.7195 57.4048 15.5328 57.4781 15.3595C57.5514 15.1795 57.6514 15.0228 57.7781 14.8895C57.9048 14.7562 58.0548 14.6528 58.2281 14.5795C58.4081 14.4995 58.6081 14.4595 58.8281 14.4595C59.0414 14.4595 59.2348 14.4995 59.4081 14.5795C59.5881 14.6528 59.7414 14.7562 59.8681 14.8895C60.0014 15.0162 60.1048 15.1695 60.1781 15.3495C60.2581 15.5295 60.3048 15.7195 60.3181 15.9195ZM61.1381 17.3595H60.2981C60.2248 17.6995 60.0714 17.9528 59.8381 18.1195C59.6114 18.2862 59.3181 18.3695 58.9581 18.3695C58.6781 18.3695 58.4348 18.3228 58.2281 18.2295C58.0214 18.1362 57.8514 18.0128 57.7181 17.8595C57.5848 17.6995 57.4881 17.5195 57.4281 17.3195C57.3681 17.1128 57.3414 16.8962 57.3481 16.6695H61.2181C61.2314 16.3562 61.2014 16.0262 61.1281 15.6795C61.0614 15.3328 60.9348 15.0128 60.7481 14.7195C60.5681 14.4262 60.3248 14.1862 60.0181 13.9995C59.7181 13.8062 59.3381 13.7095 58.8781 13.7095C58.5248 13.7095 58.1981 13.7762 57.8981 13.9095C57.6048 14.0428 57.3481 14.2295 57.1281 14.4695C56.9148 14.7095 56.7481 14.9928 56.6281 15.3195C56.5081 15.6462 56.4481 16.0062 56.4481 16.3995C56.4614 16.7928 56.5181 17.1562 56.6181 17.4895C56.7248 17.8228 56.8814 18.1095 57.0881 18.3495C57.2948 18.5895 57.5481 18.7762 57.8481 18.9095C58.1548 19.0428 58.5148 19.1095 58.9281 19.1095C59.5148 19.1095 60.0014 18.9628 60.3881 18.6695C60.7748 18.3762 61.0248 17.9395 61.1381 17.3595ZM63.2792 13.8295V12.2795H62.4292V13.8295H61.5492V14.5795H62.4292V17.8695C62.4292 18.1095 62.4525 18.3028 62.4992 18.4495C62.5459 18.5962 62.6159 18.7095 62.7092 18.7895C62.8092 18.8695 62.9359 18.9262 63.0892 18.9595C63.2492 18.9862 63.4392 18.9995 63.6592 18.9995H64.3092V18.2495H63.9192C63.7859 18.2495 63.6759 18.2462 63.5892 18.2395C63.5092 18.2262 63.4459 18.2028 63.3992 18.1695C63.3525 18.1362 63.3192 18.0895 63.2992 18.0295C63.2859 17.9695 63.2792 17.8895 63.2792 17.7895V14.5795H64.3092V13.8295H63.2792ZM68.9367 12.8995V11.8595H68.0867V12.8995H68.9367ZM68.0867 13.8295V18.9995H68.9367V13.8295H68.0867ZM71.4335 13.8295V12.2795H70.5835V13.8295H69.7035V14.5795H70.5835V17.8695C70.5835 18.1095 70.6068 18.3028 70.6535 18.4495C70.7001 18.5962 70.7701 18.7095 70.8635 18.7895C70.9635 18.8695 71.0901 18.9262 71.2435 18.9595C71.4035 18.9862 71.5935 18.9995 71.8135 18.9995H72.4635V18.2495H72.0735C71.9401 18.2495 71.8301 18.2462 71.7435 18.2395C71.6635 18.2262 71.6001 18.2028 71.5535 18.1695C71.5068 18.1362 71.4735 18.0895 71.4535 18.0295C71.4401 17.9695 71.4335 17.8895 71.4335 17.7895V14.5795H72.4635V13.8295H71.4335ZM76.881 15.4295C76.881 15.0695 76.9276 14.7162 77.021 14.3695C77.1143 14.0162 77.261 13.6995 77.461 13.4195C77.661 13.1395 77.9176 12.9162 78.231 12.7495C78.5443 12.5762 78.9176 12.4895 79.351 12.4895C79.7843 12.4895 80.1576 12.5762 80.471 12.7495C80.7843 12.9162 81.041 13.1395 81.241 13.4195C81.441 13.6995 81.5876 14.0162 81.681 14.3695C81.7743 14.7162 81.821 15.0695 81.821 15.4295C81.821 15.7895 81.7743 16.1462 81.681 16.4995C81.5876 16.8462 81.441 17.1595 81.241 17.4395C81.041 17.7195 80.7843 17.9462 80.471 18.1195C80.1576 18.2862 79.7843 18.3695 79.351 18.3695C78.9176 18.3695 78.5443 18.2862 78.231 18.1195C77.9176 17.9462 77.661 17.7195 77.461 17.4395C77.261 17.1595 77.1143 16.8462 77.021 16.4995C76.9276 16.1462 76.881 15.7895 76.881 15.4295ZM75.931 15.4295C75.931 15.9162 76.001 16.3862 76.141 16.8395C76.2876 17.2862 76.5043 17.6828 76.791 18.0295C77.0776 18.3762 77.4343 18.6528 77.861 18.8595C78.2876 19.0595 78.7843 19.1595 79.351 19.1595C79.9176 19.1595 80.4143 19.0595 80.841 18.8595C81.2676 18.6528 81.6243 18.3762 81.911 18.0295C82.1976 17.6828 82.411 17.2862 82.551 16.8395C82.6976 16.3862 82.771 15.9162 82.771 15.4295C82.771 14.9428 82.6976 14.4762 82.551 14.0295C82.411 13.5762 82.1976 13.1762 81.911 12.8295C81.6243 12.4828 81.2676 12.2062 80.841 11.9995C80.4143 11.7928 79.9176 11.6895 79.351 11.6895C78.7843 11.6895 78.2876 11.7928 77.861 11.9995C77.4343 12.2062 77.0776 12.4828 76.791 12.8295C76.5043 13.1762 76.2876 13.5762 76.141 14.0295C76.001 14.4762 75.931 14.9428 75.931 15.4295ZM83.7886 13.8295V18.9995H84.6386V16.0795C84.6386 15.8462 84.6686 15.6328 84.7286 15.4395C84.7953 15.2395 84.892 15.0662 85.0186 14.9195C85.1453 14.7728 85.302 14.6595 85.4886 14.5795C85.682 14.4995 85.9086 14.4595 86.1686 14.4595C86.4953 14.4595 86.752 14.5528 86.9386 14.7395C87.1253 14.9262 87.2186 15.1795 87.2186 15.4995V18.9995H88.0686V15.5995C88.0686 15.3195 88.0386 15.0662 87.9786 14.8395C87.9253 14.6062 87.8286 14.4062 87.6886 14.2395C87.5486 14.0728 87.3653 13.9428 87.1386 13.8495C86.912 13.7562 86.6286 13.7095 86.2886 13.7095C85.522 13.7095 84.962 14.0228 84.6086 14.6495H84.5886V13.8295H83.7886Z" fill="white"/>
<path id="Vector_7" d="M58.286 34.9996H57.166L56.9001 33.8236C56.4334 34.3556 55.9667 34.7243 55.5 34.9296C55.0333 35.1349 54.4967 35.2376 53.89 35.2376C53.1433 35.2376 52.4714 35.1023 51.8741 34.8316C51.2861 34.5516 50.7867 34.1736 50.376 33.6976C49.9653 33.2216 49.648 32.6663 49.424 32.0316C49.2093 31.3969 49.1021 30.7203 49.1021 30.0016C49.1021 29.2923 49.2093 28.6203 49.424 27.9856C49.648 27.3509 49.9653 26.7956 50.376 26.3196C50.7867 25.8436 51.2861 25.4656 51.8741 25.1856C52.4714 24.9056 53.1433 24.7656 53.89 24.7656C54.4313 24.7656 54.9447 24.8403 55.43 24.9896C55.9247 25.1296 56.3633 25.3443 56.746 25.6336C57.1287 25.9136 57.4461 26.2683 57.6981 26.6976C57.9501 27.1269 58.1087 27.6216 58.174 28.1816H56.466C56.4193 27.8549 56.3168 27.5703 56.1581 27.3276C56.0088 27.0756 55.8173 26.8656 55.584 26.6976C55.3507 26.5296 55.0893 26.4036 54.8 26.3196C54.5107 26.2356 54.2073 26.1936 53.89 26.1936C53.358 26.1936 52.8961 26.3009 52.5041 26.5156C52.1214 26.7303 51.8088 27.0196 51.5661 27.3836C51.3234 27.7383 51.1414 28.1443 51.0201 28.6016C50.9081 29.0589 50.8521 29.5256 50.8521 30.0016C50.8521 30.4776 50.9081 30.9443 51.0201 31.4016C51.1414 31.8589 51.3234 32.2696 51.5661 32.6336C51.8088 32.9883 52.1214 33.2729 52.5041 33.4876C52.8961 33.7023 53.358 33.8096 53.89 33.8096C54.338 33.8189 54.7348 33.7629 55.0801 33.6416C55.4254 33.5109 55.7148 33.3289 55.9481 33.0956C56.1908 32.8529 56.3727 32.5589 56.494 32.2136C56.6153 31.8683 56.6807 31.4856 56.69 31.0656H54.03V29.7356H58.286V34.9996ZM63.281 35.1956C62.7024 35.1956 62.1845 35.1023 61.7271 34.9156C61.2791 34.7196 60.8964 34.4536 60.579 34.1176C60.271 33.7816 60.0331 33.3803 59.8651 32.9136C59.7065 32.4469 59.627 31.9336 59.627 31.3736C59.627 30.8229 59.7065 30.3143 59.8651 29.8476C60.0331 29.3809 60.271 28.9796 60.579 28.6436C60.8964 28.3076 61.2791 28.0463 61.7271 27.8596C62.1845 27.6636 62.7024 27.5656 63.281 27.5656C63.8597 27.5656 64.373 27.6636 64.821 27.8596C65.2784 28.0463 65.6611 28.3076 65.9691 28.6436C66.2865 28.9796 66.5244 29.3809 66.683 29.8476C66.851 30.3143 66.935 30.8229 66.935 31.3736C66.935 31.9336 66.851 32.4469 66.683 32.9136C66.5244 33.3803 66.2865 33.7816 65.9691 34.1176C65.6611 34.4536 65.2784 34.7196 64.821 34.9156C64.373 35.1023 63.8597 35.1956 63.281 35.1956ZM63.281 33.9356C63.6357 33.9356 63.9438 33.8609 64.2051 33.7116C64.4665 33.5623 64.681 33.3663 64.849 33.1236C65.017 32.8809 65.1384 32.6103 65.213 32.3116C65.297 32.0036 65.339 31.6909 65.339 31.3736C65.339 31.0656 65.297 30.7576 65.213 30.4496C65.1384 30.1416 65.017 29.8709 64.849 29.6376C64.681 29.3949 64.4665 29.1989 64.2051 29.0496C63.9438 28.9003 63.6357 28.8256 63.281 28.8256C62.9264 28.8256 62.6184 28.9003 62.357 29.0496C62.0957 29.1989 61.8811 29.3949 61.7131 29.6376C61.5451 29.8709 61.419 30.1416 61.335 30.4496C61.2604 30.7576 61.223 31.0656 61.223 31.3736C61.223 31.6909 61.2604 32.0036 61.335 32.3116C61.419 32.6103 61.5451 32.8809 61.7131 33.1236C61.8811 33.3663 62.0957 33.5623 62.357 33.7116C62.6184 33.8609 62.9264 33.9356 63.281 33.9356ZM71.58 35.1956C71.0013 35.1956 70.4833 35.1023 70.026 34.9156C69.578 34.7196 69.1952 34.4536 68.8779 34.1176C68.5699 33.7816 68.332 33.3803 68.164 32.9136C68.0053 32.4469 67.926 31.9336 67.926 31.3736C67.926 30.8229 68.0053 30.3143 68.164 29.8476C68.332 29.3809 68.5699 28.9796 68.8779 28.6436C69.1952 28.3076 69.578 28.0463 70.026 27.8596C70.4833 27.6636 71.0013 27.5656 71.58 27.5656C72.1586 27.5656 72.672 27.6636 73.12 27.8596C73.5773 28.0463 73.9599 28.3076 74.2679 28.6436C74.5852 28.9796 74.8233 29.3809 74.982 29.8476C75.15 30.3143 75.234 30.8229 75.234 31.3736C75.234 31.9336 75.15 32.4469 74.982 32.9136C74.8233 33.3803 74.5852 33.7816 74.2679 34.1176C73.9599 34.4536 73.5773 34.7196 73.12 34.9156C72.672 35.1023 72.1586 35.1956 71.58 35.1956ZM71.58 33.9356C71.9346 33.9356 72.2425 33.8609 72.5039 33.7116C72.7652 33.5623 72.98 33.3663 73.148 33.1236C73.316 32.8809 73.4373 32.6103 73.512 32.3116C73.596 32.0036 73.638 31.6909 73.638 31.3736C73.638 31.0656 73.596 30.7576 73.512 30.4496C73.4373 30.1416 73.316 29.8709 73.148 29.6376C72.98 29.3949 72.7652 29.1989 72.5039 29.0496C72.2425 28.9003 71.9346 28.8256 71.58 28.8256C71.2253 28.8256 70.9172 28.9003 70.6559 29.0496C70.3945 29.1989 70.18 29.3949 70.012 29.6376C69.844 29.8709 69.718 30.1416 69.634 30.4496C69.5593 30.7576 69.5219 31.0656 69.5219 31.3736C69.5219 31.6909 69.5593 32.0036 69.634 32.3116C69.718 32.6103 69.844 32.8809 70.012 33.1236C70.18 33.3663 70.3945 33.5623 70.6559 33.7116C70.9172 33.8609 71.2253 33.9356 71.58 33.9356ZM83.2528 34.6216C83.2528 35.7136 82.9447 36.5256 82.3287 37.0576C81.722 37.5989 80.8448 37.8696 79.6968 37.8696C79.3328 37.8696 78.964 37.8323 78.5907 37.7576C78.2267 37.6829 77.8908 37.5569 77.5828 37.3796C77.2841 37.2023 77.032 36.9689 76.8267 36.6796C76.6214 36.3903 76.5 36.0356 76.4627 35.6156H78.0588C78.1054 35.8396 78.1847 36.0216 78.2967 36.1616C78.4087 36.3016 78.5394 36.4089 78.6887 36.4836C78.8474 36.5676 79.0201 36.6189 79.2068 36.6376C79.3935 36.6656 79.5895 36.6796 79.7948 36.6796C80.4387 36.6796 80.9101 36.5209 81.2088 36.2036C81.5075 35.8863 81.6567 35.4289 81.6567 34.8316V33.7256H81.6287C81.4048 34.1269 81.0967 34.4396 80.7047 34.6636C80.322 34.8876 79.9068 34.9996 79.4588 34.9996C78.8801 34.9996 78.3855 34.9016 77.9748 34.7056C77.5735 34.5003 77.2374 34.2249 76.9667 33.8796C76.7054 33.5249 76.514 33.1189 76.3927 32.6616C76.2715 32.2043 76.2108 31.7143 76.2108 31.1916C76.2108 30.7063 76.2854 30.2443 76.4347 29.8056C76.584 29.3669 76.7987 28.9843 77.0787 28.6576C77.3587 28.3216 77.6994 28.0556 78.1007 27.8596C78.5114 27.6636 78.9735 27.5656 79.4868 27.5656C79.9441 27.5656 80.364 27.6636 80.7467 27.8596C81.1294 28.0463 81.4235 28.3449 81.6287 28.7556H81.6567V27.7616H83.2528V34.6216ZM79.7108 33.7396C80.0655 33.7396 80.364 33.6696 80.6067 33.5296C80.8587 33.3803 81.0595 33.1889 81.2088 32.9556C81.3675 32.7129 81.4795 32.4423 81.5448 32.1436C81.6194 31.8356 81.6567 31.5276 81.6567 31.2196C81.6567 30.9116 81.6194 30.6129 81.5448 30.3236C81.4701 30.0343 81.3535 29.7776 81.1948 29.5536C81.0455 29.3296 80.8447 29.1523 80.5927 29.0216C80.35 28.8909 80.0561 28.8256 79.7108 28.8256C79.3561 28.8256 79.0574 28.9003 78.8147 29.0496C78.572 29.1989 78.376 29.3949 78.2267 29.6376C78.0774 29.8709 77.9701 30.1416 77.9048 30.4496C77.8395 30.7483 77.8068 31.0469 77.8068 31.3456C77.8068 31.6443 77.8441 31.9383 77.9188 32.2276C77.9935 32.5076 78.1054 32.7596 78.2547 32.9836C78.4135 33.2076 78.6094 33.3896 78.8427 33.5296C79.0854 33.6696 79.3748 33.7396 79.7108 33.7396ZM84.9015 25.0036H86.4975V34.9996H84.9015V25.0036ZM93.2065 30.7436C93.1878 30.4916 93.1318 30.2489 93.0385 30.0156C92.9545 29.7823 92.8332 29.5816 92.6745 29.4136C92.5252 29.2363 92.3386 29.0963 92.1146 28.9936C91.8999 28.8816 91.6572 28.8256 91.3865 28.8256C91.1065 28.8256 90.8498 28.8769 90.6166 28.9796C90.3926 29.0729 90.1966 29.2083 90.0286 29.3856C89.8699 29.5536 89.7392 29.7543 89.6365 29.9876C89.5432 30.2209 89.4918 30.4729 89.4825 30.7436H93.2065ZM89.4825 31.7936C89.4825 32.0736 89.5198 32.3443 89.5945 32.6056C89.6785 32.8669 89.7999 33.0956 89.9586 33.2916C90.1173 33.4876 90.3179 33.6463 90.5606 33.7676C90.8032 33.8796 91.0925 33.9356 91.4285 33.9356C91.8952 33.9356 92.2686 33.8376 92.5485 33.6416C92.8378 33.4363 93.0525 33.1329 93.1925 32.7316H94.7045C94.6205 33.1236 94.4758 33.4736 94.2705 33.7816C94.0653 34.0896 93.8179 34.3509 93.5286 34.5656C93.2393 34.7709 92.9125 34.9249 92.5485 35.0276C92.1939 35.1396 91.8205 35.1956 91.4285 35.1956C90.8592 35.1956 90.3552 35.1023 89.9165 34.9156C89.4778 34.7289 89.1045 34.4676 88.7966 34.1316C88.4979 33.7956 88.2692 33.3943 88.1105 32.9276C87.9612 32.4609 87.8865 31.9476 87.8865 31.3876C87.8865 30.8743 87.9658 30.3889 88.1245 29.9316C88.2925 29.4649 88.5259 29.0589 88.8246 28.7136C89.1325 28.3589 89.5012 28.0789 89.9305 27.8736C90.3598 27.6683 90.8452 27.5656 91.3865 27.5656C91.9558 27.5656 92.4645 27.6869 92.9125 27.9296C93.3698 28.1629 93.7479 28.4756 94.0466 28.8676C94.3452 29.2596 94.5598 29.7123 94.6905 30.2256C94.8305 30.7296 94.8678 31.2523 94.8025 31.7936H89.4825ZM100.136 25.0036H104.546C105.256 25.0036 105.834 25.1063 106.282 25.3116C106.73 25.5169 107.076 25.7736 107.318 26.0816C107.561 26.3896 107.724 26.7256 107.808 27.0896C107.902 27.4536 107.948 27.7896 107.948 28.0976C107.948 28.4056 107.902 28.7416 107.808 29.1056C107.724 29.4603 107.561 29.7916 107.318 30.0996C107.076 30.4076 106.73 30.6643 106.282 30.8696C105.834 31.0656 105.256 31.1636 104.546 31.1636H101.886V34.9996H100.136V25.0036ZM101.886 29.7356H104.448C104.644 29.7356 104.845 29.7076 105.05 29.6516C105.256 29.5956 105.442 29.5069 105.61 29.3856C105.788 29.2549 105.928 29.0869 106.03 28.8816C106.142 28.6669 106.198 28.4009 106.198 28.0836C106.198 27.7569 106.152 27.4863 106.058 27.2716C105.965 27.0569 105.839 26.8889 105.68 26.7676C105.522 26.6369 105.34 26.5483 105.134 26.5016C104.929 26.4549 104.71 26.4316 104.476 26.4316H101.886V29.7356ZM109.292 25.0036H110.888V34.9996H109.292V25.0036ZM118.689 33.3896C118.689 33.5856 118.712 33.7256 118.759 33.8096C118.815 33.8936 118.918 33.9356 119.067 33.9356C119.114 33.9356 119.17 33.9356 119.235 33.9356C119.3 33.9356 119.375 33.9263 119.459 33.9076V35.0136C119.403 35.0323 119.328 35.0509 119.235 35.0696C119.151 35.0976 119.062 35.1209 118.969 35.1396C118.876 35.1583 118.782 35.1723 118.689 35.1816C118.596 35.1909 118.516 35.1956 118.451 35.1956C118.124 35.1956 117.854 35.1303 117.639 34.9996C117.424 34.8689 117.284 34.6403 117.219 34.3136C116.902 34.6216 116.51 34.8456 116.043 34.9856C115.586 35.1256 115.142 35.1956 114.713 35.1956C114.386 35.1956 114.074 35.1489 113.775 35.0556C113.476 34.9716 113.21 34.8456 112.977 34.6776C112.753 34.5003 112.571 34.2809 112.431 34.0196C112.3 33.7489 112.235 33.4363 112.235 33.0816C112.235 32.6336 112.314 32.2696 112.473 31.9896C112.641 31.7096 112.856 31.4903 113.117 31.3316C113.388 31.1729 113.686 31.0609 114.013 30.9956C114.349 30.9209 114.685 30.8649 115.021 30.8276C115.31 30.7716 115.586 30.7343 115.847 30.7156C116.108 30.6876 116.337 30.6456 116.533 30.5896C116.738 30.5336 116.897 30.4496 117.009 30.3376C117.13 30.2163 117.191 30.0389 117.191 29.8056C117.191 29.6003 117.14 29.4323 117.037 29.3016C116.944 29.1709 116.822 29.0729 116.673 29.0076C116.533 28.9329 116.374 28.8863 116.197 28.8676C116.02 28.8396 115.852 28.8256 115.693 28.8256C115.245 28.8256 114.876 28.9189 114.587 29.1056C114.298 29.2923 114.134 29.5816 114.097 29.9736H112.501C112.529 29.5069 112.641 29.1196 112.837 28.8116C113.033 28.5036 113.28 28.2563 113.579 28.0696C113.887 27.8829 114.232 27.7523 114.615 27.6776C114.998 27.6029 115.39 27.5656 115.791 27.5656C116.146 27.5656 116.496 27.6029 116.841 27.6776C117.186 27.7523 117.494 27.8736 117.765 28.0416C118.045 28.2096 118.269 28.4289 118.437 28.6996C118.605 28.9609 118.689 29.2829 118.689 29.6656V33.3896ZM117.093 31.3736C116.85 31.5323 116.552 31.6303 116.197 31.6676C115.842 31.6956 115.488 31.7423 115.133 31.8076C114.965 31.8356 114.802 31.8776 114.643 31.9336C114.484 31.9803 114.344 32.0503 114.223 32.1436C114.102 32.2276 114.004 32.3443 113.929 32.4936C113.864 32.6336 113.831 32.8063 113.831 33.0116C113.831 33.1889 113.882 33.3383 113.985 33.4596C114.088 33.5809 114.209 33.6789 114.349 33.7536C114.498 33.8189 114.657 33.8656 114.825 33.8936C115.002 33.9216 115.161 33.9356 115.301 33.9356C115.478 33.9356 115.67 33.9123 115.875 33.8656C116.08 33.8189 116.272 33.7396 116.449 33.6276C116.636 33.5156 116.79 33.3756 116.911 33.2076C117.032 33.0303 117.093 32.8156 117.093 32.5636V31.3736ZM119.608 27.7616H121.358L123.248 33.1656H123.276L125.11 27.7616H126.776L123.962 35.3916C123.832 35.7183 123.701 36.0309 123.57 36.3296C123.449 36.6283 123.295 36.8896 123.108 37.1136C122.931 37.3469 122.707 37.5289 122.436 37.6596C122.166 37.7996 121.82 37.8696 121.4 37.8696C121.027 37.8696 120.658 37.8416 120.294 37.7856V36.4416C120.425 36.4603 120.551 36.4789 120.672 36.4976C120.794 36.5256 120.92 36.5396 121.05 36.5396C121.237 36.5396 121.391 36.5163 121.512 36.4696C121.634 36.4229 121.732 36.3529 121.806 36.2596C121.89 36.1756 121.96 36.0729 122.016 35.9516C122.072 35.8303 122.124 35.6903 122.17 35.5316L122.352 34.9716L119.608 27.7616Z" fill="white"/>
</g>
<defs>
<filter id="filter0_dd_736_3384" x="18.5" y="13.3795" width="20" height="20.24" filterUnits="userSpaceOnUse" color-interpolation-filters="sRGB">
<feFlood flood-opacity="0" result="BackgroundImageFix"/>
<feColorMatrix in="SourceAlpha" type="matrix" values="0 0 0 0 0 0 0 0 0 0 0 0 0 0 0 0 0 0 127 0" result="hardAlpha"/>
<feOffset dy="-0.12"/>
<feComposite in2="hardAlpha" operator="out"/>
<feColorMatrix type="matrix" values="0 0 0 0 0 0 0 0 0 0 0 0 0 0 0 0 0 0 0.12 0"/>
<feBlend mode="normal" in2="BackgroundImageFix" result="effect1_dropShadow_736_3384"/>
<feColorMatrix in="SourceAlpha" type="matrix" values="0 0 0 0 0 0 0 0 0 0 0 0 0 0 0 0 0 0 127 0" result="hardAlpha"/>
<feOffset dy="0.12"/>
<feComposite in2="hardAlpha" operator="out"/>
<feColorMatrix type="matrix" values="0 0 0 0 1 0 0 0 0 1 0 0 0 0 1 0 0 0 0.25 0"/>
<feBlend mode="normal" in2="effect1_dropShadow_736_3384" result="effect2_dropShadow_736_3384"/>
<feBlend mode="normal" in="SourceGraphic" in2="effect2_dropShadow_736_3384" result="shape"/>
</filter>
<filter id="filter1_d_736_3384" x="18.9009" y="23.3795" width="14.4531" height="10.12" filterUnits="userSpaceOnUse" color-interpolation-filters="sRGB">
<feFlood flood-opacity="0" result="BackgroundImageFix"/>
<feColorMatrix in="SourceAlpha" type="matrix" values="0 0 0 0 0 0 0 0 0 0 0 0 0 0 0 0 0 0 127 0" result="hardAlpha"/>
<feOffset dy="-0.12"/>
<feComposite in2="hardAlpha" operator="out"/>
<feColorMatrix type="matrix" values="0 0 0 0 0 0 0 0 0 0 0 0 0 0 0 0 0 0 0.08 0"/>
<feBlend mode="normal" in2="BackgroundImageFix" result="effect1_dropShadow_736_3384"/>
<feBlend mode="normal" in="SourceGraphic" in2="effect1_dropShadow_736_3384" result="shape"/>
</filter>
<linearGradient id="paint0_linear_736_3384" x1="28.7451" y1="14.7188" x2="15.7714" y2="29.1708" gradientUnits="userSpaceOnUse">
<stop stop-color="#00A0FF"/>
<stop offset="0.0066" stop-color="#00A1FF"/>
<stop offset="0.2601" stop-color="#00BEFF"/>
<stop offset="0.5122" stop-color="#00D2FF"/>
<stop offset="0.7604" stop-color="#00DFFF"/>
<stop offset="1" stop-color="#00E3FF"/>
</linearGradient>
<linearGradient id="paint1_linear_736_3384" x1="39.1676" y1="23.4992" x2="18.2094" y2="23.4992" gradientUnits="userSpaceOnUse">
<stop stop-color="#FFE000"/>
<stop offset="0.4087" stop-color="#FFBD00"/>
<stop offset="0.7754" stop-color="#FFA500"/>
<stop offset="1" stop-color="#FF9C00"/>
</linearGradient>
<linearGradient id="paint2_linear_736_3384" x1="31.3671" y1="25.2832" x2="13.7732" y2="44.882" gradientUnits="userSpaceOnUse">
<stop stop-color="#FF3A44"/>
<stop offset="1" stop-color="#C31162"/>
</linearGradient>
<linearGradient id="paint3_linear_736_3384" x1="16.1823" y1="8.08439" x2="24.0385" y2="16.8358" gradientUnits="userSpaceOnUse">
<stop stop-color="#32A071"/>
<stop offset="0.0685" stop-color="#2DA771"/>
<stop offset="0.4762" stop-color="#15CF74"/>
<stop offset="0.8009" stop-color="#06E775"/>
<stop offset="1" stop-color="#00F076"/>
</linearGradient>
<clipPath id="clip0_736_3384">
<rect width="148" height="46" fill="white" transform="translate(0.5 0.499512)"/>
</clipPath>
</defs>
</svg>
