<svg width="24" height="25" viewBox="0 0 24 25" fill="none" xmlns="http://www.w3.org/2000/svg">
<g id="Group">
<path id="Vector" d="M13.0598 3.78243C12.7785 3.50153 12.3973 3.34375 11.9998 3.34375C11.6023 3.34375 11.221 3.50153 10.9398 3.78243L5.28079 9.43843C4.99939 9.71982 4.84131 10.1015 4.84131 10.4994C4.84131 10.8974 4.99939 11.279 5.28079 11.5604C5.56218 11.8418 5.94384 11.9999 6.34179 11.9999C6.73974 11.9999 7.12139 11.8418 7.40279 11.5604L10.4998 8.46443V19.9994C10.4998 20.3973 10.6578 20.7788 10.9391 21.0601C11.2204 21.3414 11.602 21.4994 11.9998 21.4994C12.3976 21.4994 12.7791 21.3414 13.0604 21.0601C13.3418 20.7788 13.4998 20.3973 13.4998 19.9994V8.46443L16.5958 11.5604C16.7351 11.6998 16.9005 11.8103 17.0826 11.8857C17.2646 11.9611 17.4597 11.9999 17.6568 11.9999C17.8538 11.9999 18.049 11.9611 18.231 11.8857C18.413 11.8103 18.5785 11.6998 18.7178 11.5604C18.8571 11.4211 18.9676 11.2557 19.0431 11.0736C19.1185 10.8916 19.1573 10.6965 19.1573 10.4994C19.1573 10.3024 19.1185 10.1073 19.0431 9.92522C18.9676 9.74317 18.8571 9.57776 18.7178 9.43843L13.0598 3.78243Z" fill="white"/>
</g>
</svg>
