<svg width="61" height="61" viewBox="0 0 61 61" fill="none" xmlns="http://www.w3.org/2000/svg">
<g id="mdi:hand-coin-outline">
<path id="Vector" d="M40.5 5.5C33.6 5.5 28 11.1 28 18C28 24.9 33.6 30.5 40.5 30.5C47.4 30.5 53 24.9 53 18C53 11.1 47.4 5.5 40.5 5.5ZM40.5 25.5C36.35 25.5 33 22.15 33 18C33 13.85 36.35 10.5 40.5 10.5C44.65 10.5 48 13.85 48 18C48 22.15 44.65 25.5 40.5 25.5ZM48 40.5H43C43 37.5 41.125 34.8 38.325 33.75L22.925 28H3V55.5H18V51.9L35.5 56.75L55.5 50.5V48C55.5 43.85 52.15 40.5 48 40.5ZM13 50.5H8V33H13V50.5ZM35.425 51.525L18 46.75V33H22.025L36.575 38.425C37.425 38.75 38 39.575 38 40.5C38 40.5 33 40.375 32.25 40.125L26.3 38.15L24.725 42.9L30.675 44.875C31.95 45.3 33.275 45.5 34.625 45.5H48C48.975 45.5 49.85 46.1 50.25 46.925L35.425 51.525Z" fill="#17004A"/>
</g>
</svg>
