<svg width="61" height="61" viewBox="0 0 61 61" fill="none" xmlns="http://www.w3.org/2000/svg">
<g id="solar:home-linear">
<g id="Group">
<path id="Vector" d="M55.5 55.5H5.5M5.5 28L25.815 11.75C27.1448 10.6862 28.7971 10.1067 30.5 10.1067C32.2029 10.1067 33.8552 10.6862 35.185 11.75L55.5 28M39.25 14.25V9.25C39.25 8.91848 39.3817 8.60054 39.6161 8.36612C39.8505 8.1317 40.1685 8 40.5 8H46.75C47.0815 8 47.3995 8.1317 47.6339 8.36612C47.8683 8.60054 48 8.91848 48 9.25V21.75M10.5 55.5V24.25M50.5 55.5V24.25" stroke="#17004A" stroke-width="3.5" stroke-linecap="round"/>
<path id="Vector_2" d="M38 55.5V43C38 39.465 38 37.6975 36.9 36.6C35.805 35.5 34.0375 35.5 30.5 35.5C26.965 35.5 25.1975 35.5 24.1 36.6C23 37.695 23 39.4625 23 43V55.5M35.5 24.25C35.5 25.5761 34.9732 26.8479 34.0355 27.7855C33.0979 28.7232 31.8261 29.25 30.5 29.25C29.1739 29.25 27.9021 28.7232 26.9645 27.7855C26.0268 26.8479 25.5 25.5761 25.5 24.25C25.5 22.9239 26.0268 21.6521 26.9645 20.7145C27.9021 19.7768 29.1739 19.25 30.5 19.25C31.8261 19.25 33.0979 19.7768 34.0355 20.7145C34.9732 21.6521 35.5 22.9239 35.5 24.25Z" stroke="#17004A" stroke-width="3.5"/>
</g>
</g>
</svg>
