<svg width="24" height="25" viewBox="0 0 24 25" fill="none" xmlns="http://www.w3.org/2000/svg">
<g id="skill-icons:instagram" clip-path="url(#clip0_736_3421)">
<g id="Group">
<path id="Vector" d="M18.375 0.499512H5.625C2.5184 0.499512 0 3.01791 0 6.12451V18.8745C0 21.9811 2.5184 24.4995 5.625 24.4995H18.375C21.4816 24.4995 24 21.9811 24 18.8745V6.12451C24 3.01791 21.4816 0.499512 18.375 0.499512Z" fill="url(#paint0_radial_736_3421)"/>
<path id="Vector_2" d="M18.375 0.499512H5.625C2.5184 0.499512 0 3.01791 0 6.12451V18.8745C0 21.9811 2.5184 24.4995 5.625 24.4995H18.375C21.4816 24.4995 24 21.9811 24 18.8745V6.12451C24 3.01791 21.4816 0.499512 18.375 0.499512Z" fill="url(#paint1_radial_736_3421)"/>
<path id="Vector_3" d="M12.0008 3.12451C9.45478 3.12451 9.13519 3.13567 8.13525 3.18114C7.13719 3.22689 6.45591 3.38486 5.85984 3.6167C5.24316 3.85614 4.72013 4.17648 4.19906 4.69773C3.67753 5.21889 3.35719 5.74192 3.117 6.35832C2.8845 6.95457 2.72634 7.63614 2.68144 8.63373C2.63672 9.63376 2.625 9.95345 2.625 12.4996C2.625 15.0458 2.63625 15.3643 2.68163 16.3643C2.72756 17.3623 2.88553 18.0436 3.11719 18.6397C3.35681 19.2564 3.67716 19.7794 4.19841 20.3004C4.71938 20.822 5.24241 21.1431 5.85862 21.3825C6.45516 21.6144 7.13653 21.7723 8.13441 21.8181C9.13444 21.8635 9.45375 21.8747 11.9997 21.8747C14.5461 21.8747 14.8646 21.8635 15.8646 21.8181C16.8626 21.7723 17.5447 21.6144 18.1412 21.3825C18.7576 21.1431 19.2799 20.822 19.8007 20.3004C20.3223 19.7794 20.6425 19.2564 20.8828 18.6399C21.1133 18.0436 21.2715 17.3621 21.3184 16.3644C21.3633 15.3645 21.375 15.0458 21.375 12.4996C21.375 9.95345 21.3633 9.63395 21.3184 8.63392C21.2715 7.63586 21.1133 6.95467 20.8828 6.35861C20.6425 5.74192 20.3223 5.21889 19.8007 4.69773C19.2793 4.17629 18.7578 3.85595 18.1406 3.61679C17.543 3.38486 16.8613 3.22679 15.8632 3.18114C14.8632 3.13567 14.5448 3.12451 11.9979 3.12451H12.0008ZM11.1598 4.81398C11.4095 4.81361 11.688 4.81398 12.0008 4.81398C14.5041 4.81398 14.8007 4.82298 15.7892 4.86789C16.7032 4.9097 17.1994 5.06242 17.5298 5.19076C17.9674 5.36064 18.2793 5.56379 18.6072 5.89201C18.9353 6.22014 19.1384 6.53261 19.3088 6.97014C19.4371 7.30014 19.59 7.79626 19.6316 8.71032C19.6765 9.69864 19.6863 9.99545 19.6863 12.4974C19.6863 14.9994 19.6765 15.2964 19.6316 16.2846C19.5898 17.1986 19.4371 17.6948 19.3088 18.0249C19.1389 18.4624 18.9353 18.7739 18.6072 19.1019C18.2791 19.43 17.9676 19.633 17.5298 19.803C17.1997 19.9319 16.7032 20.0843 15.7892 20.1261C14.8009 20.171 14.5041 20.1807 12.0008 20.1807C9.49753 20.1807 9.20081 20.171 8.21259 20.1261C7.29853 20.0839 6.80241 19.9312 6.47166 19.8028C6.03422 19.6329 5.72166 19.4298 5.39353 19.1017C5.06541 18.7735 4.86234 18.4618 4.692 18.0241C4.56366 17.694 4.41075 17.1979 4.36913 16.2838C4.32422 15.2955 4.31522 14.9987 4.31522 12.4951C4.31522 9.99161 4.32422 9.69629 4.36913 8.70798C4.41094 7.79392 4.56366 7.29779 4.692 6.96732C4.86197 6.52979 5.06541 6.21732 5.39363 5.8892C5.72175 5.56107 6.03422 5.35792 6.47175 5.18767C6.80222 5.05876 7.29853 4.90642 8.21259 4.86442C9.07744 4.82532 9.41259 4.81361 11.1598 4.81164V4.81398ZM17.0052 6.37061C16.3841 6.37061 15.8802 6.87404 15.8802 7.49523C15.8802 8.11632 16.3841 8.62023 17.0052 8.62023C17.6263 8.62023 18.1302 8.11632 18.1302 7.49523C18.1302 6.87414 17.6263 6.37023 17.0052 6.37023V6.37061ZM12.0008 7.68507C9.34209 7.68507 7.18641 9.84076 7.18641 12.4996C7.18641 15.1585 9.34209 17.3131 12.0008 17.3131C14.6597 17.3131 16.8146 15.1585 16.8146 12.4996C16.8146 9.84086 14.6595 7.68507 12.0007 7.68507H12.0008ZM12.0008 9.37454C13.7267 9.37454 15.1259 10.7736 15.1259 12.4996C15.1259 14.2254 13.7267 15.6247 12.0008 15.6247C10.2749 15.6247 8.87588 14.2254 8.87588 12.4996C8.87588 10.7736 10.2749 9.37454 12.0008 9.37454Z" fill="white"/>
</g>
</g>
<defs>
<radialGradient id="paint0_radial_736_3421" cx="0" cy="0" r="1" gradientUnits="userSpaceOnUse" gradientTransform="translate(6.375 26.348) rotate(-90) scale(23.7858 22.1227)">
<stop stop-color="#FFDD55"/>
<stop offset="0.1" stop-color="#FFDD55"/>
<stop offset="0.5" stop-color="#FF543E"/>
<stop offset="1" stop-color="#C837AB"/>
</radialGradient>
<radialGradient id="paint1_radial_736_3421" cx="0" cy="0" r="1" gradientUnits="userSpaceOnUse" gradientTransform="translate(-4.02009 2.22836) rotate(78.681) scale(10.6324 43.827)">
<stop stop-color="#3771C8"/>
<stop offset="0.128" stop-color="#3771C8"/>
<stop offset="1" stop-color="#6600FF" stop-opacity="0"/>
</radialGradient>
<clipPath id="clip0_736_3421">
<rect width="24" height="24" fill="white" transform="translate(0 0.499512)"/>
</clipPath>
</defs>
</svg>
