<svg width="24" height="25" viewBox="0 0 24 25" fill="none" xmlns="http://www.w3.org/2000/svg">
<g id="Interface">
<path id="Vector" d="M4 7.26575V16.8657C4 17.9859 4 18.5456 4.21799 18.9734C4.40973 19.3498 4.71547 19.656 5.0918 19.8478C5.5192 20.0656 6.07899 20.0656 7.19691 20.0656H16.8031C17.921 20.0656 18.48 20.0656 18.9074 19.8478C19.2837 19.656 19.5905 19.3498 19.7822 18.9734C20 18.546 20 17.987 20 16.8691V7.26246C20 6.14455 20 5.58475 19.7822 5.15735C19.5905 4.78102 19.2837 4.47529 18.9074 4.28354C18.4796 4.06555 17.9203 4.06555 16.8002 4.06555H7.2002C6.08009 4.06555 5.51962 4.06555 5.0918 4.28354C4.71547 4.47529 4.40973 4.78102 4.21799 5.15735C4 5.58517 4 6.14564 4 7.26575Z" stroke="#5F5E5E" stroke-width="2" stroke-linecap="round" stroke-linejoin="round"/>
</g>
</svg>
