<svg width="71" height="51" viewBox="0 0 71 51" fill="none" xmlns="http://www.w3.org/2000/svg">
<g id="house with feathers">
<g id="Group 26086162">
<g id="Group 26086150">
<g id="Group">
<path id="Vector" d="M51.8475 9.66329L57.6745 1.77958L58.7755 4.92223L53.1272 12.5642C52.4713 11.6999 52.0401 10.7032 51.8475 9.66329Z" fill="#003B99"/>
<path id="Vector_2" d="M54.5161 13.9303C54.137 13.6501 53.7953 13.338 53.4915 13.0004L58.1472 6.70146L59.2482 9.8441L55.7056 14.6371C55.294 14.4457 54.8952 14.2105 54.5161 13.9303Z" fill="#376AB9"/>
<path id="Vector_3" d="M59.3779 15.2259C58.3273 15.3469 57.2479 15.2272 56.2292 14.8537L58.614 11.6272L59.715 14.7699L59.3779 15.2259Z" fill="#87D6B9"/>
</g>
</g>
<g id="Group 26086150_2">
<g id="Group 26086149">
<g id="building structure logo1">
<path id="Vector 28" d="M18.8503 50.1368H12.2974L14.7937 47.9525V26.4213H2L27.8995 1.76965L55.0472 23.3008H49.1184L27.8995 6.76239L10.7372 23.3008H18.8503V50.1368Z" fill="white" stroke="white" stroke-width="1.24818"/>
<path id="Vector 29" d="M36.6387 6.1383L39.4471 8.01057L41.3193 6.1383L62.8502 22.9888H68.467L56.6094 13.6274L52.5528 10.5069L41.3193 1.76965L36.6387 6.1383Z" fill="#01C598" stroke="#01C598" stroke-width="1.24818"/>
</g>
</g>
</g>
</g>
</g>
</svg>
