<svg width="40" height="35" viewBox="0 0 40 35" fill="none" xmlns="http://www.w3.org/2000/svg">
<path id="Vector" d="M14.6763 25.4809C20.9891 25.1303 26 19.9005 26 13.5C26 6.87258 20.6274 1.5 14 1.5C7.37258 1.5 2 6.87258 2 13.5C2 15.8614 2.68188 18.0634 3.85978 19.9199L3.01172 22.4641L3.01037 22.4678C2.68555 23.4423 2.52307 23.9297 2.63877 24.2542C2.73959 24.5369 2.96337 24.7598 3.24609 24.8606C3.56945 24.9759 4.05349 24.8145 5.02138 24.4919L5.03516 24.4877L7.58008 23.6396C9.4366 24.8175 11.6387 25.4996 14.0001 25.4996C14.227 25.4996 14.4525 25.4933 14.6763 25.4809ZM14.6763 25.4809C14.6764 25.4814 14.6761 25.4804 14.6763 25.4809ZM14.6763 25.4809C16.3181 30.1518 20.7682 33.5003 26.0003 33.5003C28.3617 33.5003 30.5633 32.8176 32.4197 31.6396L34.9641 32.4877L34.969 32.4887C35.9433 32.8135 36.4317 32.9762 36.7561 32.8606C37.0388 32.7597 37.2597 32.5369 37.3606 32.2541C37.4764 31.9292 37.3144 31.4412 36.9887 30.4641L36.1406 27.9199L36.4247 27.4492C37.4276 25.6959 37.9989 23.6646 37.9989 21.5C37.9989 14.8726 32.6274 9.5 26 9.5L25.5508 9.50828L25.3242 9.51935" stroke="#17004A" stroke-width="3" stroke-linecap="round" stroke-linejoin="round"/>
</svg>
