<svg width="17" height="16" viewBox="0 0 17 16" fill="none" xmlns="http://www.w3.org/2000/svg">
<path id="Vector" d="M1.66667 1.74821H4.16667L5.83333 0.081543H10.8333L12.5 1.74821H15C15.442 1.74821 15.8659 1.9238 16.1785 2.23636C16.4911 2.54893 16.6667 2.97285 16.6667 3.41488V13.4149C16.6667 13.8569 16.4911 14.2808 16.1785 14.5934C15.8659 14.9059 15.442 15.0815 15 15.0815H1.66667C1.22464 15.0815 0.800716 14.9059 0.488155 14.5934C0.175595 14.2808 0 13.8569 0 13.4149V3.41488C0 2.97285 0.175595 2.54893 0.488155 2.23636C0.800716 1.9238 1.22464 1.74821 1.66667 1.74821ZM8.33333 4.24821C7.22826 4.24821 6.16846 4.6872 5.38705 5.4686C4.60565 6.25 4.16667 7.30981 4.16667 8.41488C4.16667 9.51995 4.60565 10.5798 5.38705 11.3612C6.16846 12.1426 7.22826 12.5815 8.33333 12.5815C9.4384 12.5815 10.4982 12.1426 11.2796 11.3612C12.061 10.5798 12.5 9.51995 12.5 8.41488C12.5 7.30981 12.061 6.25 11.2796 5.4686C10.4982 4.6872 9.4384 4.24821 8.33333 4.24821ZM8.33333 5.91488C8.99637 5.91488 9.63226 6.17827 10.1011 6.64711C10.5699 7.11595 10.8333 7.75183 10.8333 8.41488C10.8333 9.07792 10.5699 9.7138 10.1011 10.1826C9.63226 10.6515 8.99637 10.9149 8.33333 10.9149C7.67029 10.9149 7.03441 10.6515 6.56557 10.1826C6.09672 9.7138 5.83333 9.07792 5.83333 8.41488C5.83333 7.75183 6.09672 7.11595 6.56557 6.64711C7.03441 6.17827 7.67029 5.91488 8.33333 5.91488Z" fill="white"/>
</svg>
