<svg width="61" height="61" viewBox="0 0 61 61" fill="none" xmlns="http://www.w3.org/2000/svg">
<g id="iconoir:verified-user">
<g id="Group">
<path id="Vector" d="M5.5 50.5V48C5.5 43.3587 7.34374 38.9075 10.6256 35.6256C13.9075 32.3437 18.3587 30.5 23 30.5" stroke="#17004A" stroke-width="3.5" stroke-linecap="round" stroke-linejoin="round"/>
<path id="Vector_2" d="M40.0101 31.285C40.3892 30.869 40.8509 30.5366 41.3658 30.3092C41.8806 30.0818 42.4373 29.9644 43.0001 29.9644C43.5629 29.9644 44.1196 30.0818 44.6344 30.3092C45.1493 30.5366 45.611 30.869 45.9901 31.285C46.8026 32.175 47.9651 32.6575 49.1701 32.6C49.7326 32.5737 50.2944 32.665 50.8195 32.8683C51.3447 33.0715 51.8216 33.3822 52.2198 33.7803C52.618 34.1785 52.9286 34.6555 53.1319 35.1806C53.3351 35.7057 53.4265 36.2675 53.4001 36.83C53.3426 38.0325 53.8251 39.1975 54.7151 40.01C56.4776 41.615 56.4776 44.385 54.7151 45.99C53.8251 46.8025 53.3426 47.965 53.4001 49.17C53.4265 49.7325 53.3351 50.2943 53.1319 50.8195C52.9286 51.3446 52.618 51.8215 52.2198 52.2197C51.8216 52.6179 51.3447 52.9286 50.8195 53.1318C50.2944 53.335 49.7326 53.4264 49.1701 53.4C48.576 53.3719 47.9829 53.4752 47.4333 53.7025C46.8836 53.9298 46.3909 54.2755 45.9901 54.715C45.611 55.1311 45.1493 55.4634 44.6344 55.6908C44.1196 55.9183 43.5629 56.0357 43.0001 56.0357C42.4373 56.0357 41.8806 55.9183 41.3658 55.6908C40.8509 55.4634 40.3892 55.1311 40.0101 54.715C39.6093 54.2755 39.1166 53.9298 38.5669 53.7025C38.0172 53.4752 37.4242 53.3719 36.8301 53.4C36.2676 53.4264 35.7058 53.335 35.1807 53.1318C34.6555 52.9286 34.1786 52.6179 33.7804 52.2197C33.3822 51.8215 33.0716 51.3446 32.8683 50.8195C32.6651 50.2943 32.5737 49.7325 32.6001 49.17C32.6279 48.5757 32.5242 47.9826 32.2965 47.4329C32.0687 46.8832 31.7226 46.3906 31.2826 45.99C30.8665 45.611 30.5342 45.1492 30.3068 44.6344C30.0794 44.1195 29.9619 43.5629 29.9619 43C29.9619 42.4372 30.0794 41.8805 30.3068 41.3657C30.5342 40.8508 30.8665 40.3891 31.2826 40.01C32.1751 39.1975 32.6576 38.035 32.6001 36.83C32.5737 36.2675 32.6651 35.7057 32.8683 35.1806C33.0716 34.6555 33.3822 34.1785 33.7804 33.7803C34.1786 33.3822 34.6555 33.0715 35.1807 32.8683C35.7058 32.665 36.2676 32.5737 36.8301 32.6C38.0326 32.6575 39.1976 32.175 40.0101 31.2825V31.285Z" stroke="#17004A" stroke-width="3.5"/>
<path id="Vector_3" d="M38.91 43L41.635 45.725L47.09 40.275M23 30.5C25.6522 30.5 28.1957 29.4464 30.0711 27.5711C31.9464 25.6957 33 23.1522 33 20.5C33 17.8478 31.9464 15.3043 30.0711 13.4289C28.1957 11.5536 25.6522 10.5 23 10.5C20.3478 10.5 17.8043 11.5536 15.9289 13.4289C14.0536 15.3043 13 17.8478 13 20.5C13 23.1522 14.0536 25.6957 15.9289 27.5711C17.8043 29.4464 20.3478 30.5 23 30.5Z" stroke="#17004A" stroke-width="3.5" stroke-linecap="round" stroke-linejoin="round"/>
</g>
</g>
</svg>
