<svg width="186" height="91" viewBox="0 0 186 91" fill="none" xmlns="http://www.w3.org/2000/svg">
<path d="M82.8846 14.1471L92.2214 1.51479L93.9856 6.55034L84.9351 18.7952C83.8841 17.4104 83.1932 15.8133 82.8846 14.1471Z" fill="#003B99"/>
<path d="M87.1543 20.9879C86.5469 20.539 85.9994 20.0388 85.5126 19.4979L92.9725 9.40492L94.7367 14.4405L89.0603 22.1204C88.4007 21.8137 87.7617 21.4369 87.1543 20.9879Z" fill="#376AB9"/>
<path d="M94.9472 23.0629C93.2638 23.2568 91.5343 23.0649 89.902 22.4664L93.7231 17.2966L95.4873 22.3321L94.9472 23.0629Z" fill="#87D6B9"/>
<path d="M30 79.0064H19.5L23.5 75.5064V41.0064H3L44.5 1.50637L88 36.0064H78.5L44.5 9.50637L17 36.0064H30V79.0064Z" fill="white" stroke="white" stroke-width="2"/>
<path d="M58.5 8.50637L63 11.5064L66 8.50637L100.5 35.5064H109.5L90.5 20.5064L84 15.5064L66 1.50637L58.5 8.50637Z" fill="#01C598" stroke="#01C598" stroke-width="2"/>
<path d="M33 70.8443C33 70.5318 33.0312 70.162 33.0938 69.7349L35.0469 69.3911C35.2865 69.3391 35.5729 69.2557 35.9062 69.1411L36.1094 65.2349C36.0677 63.8286 36.0469 62.7766 36.0469 62.0786L36.0625 61.7036C36.0938 61.2766 36.1094 60.2036 36.1094 58.4849L36.0781 58.0318L36.1094 56.7193L36.0938 55.3599V54.688C36.0938 54.0839 36.0469 53.3755 35.9531 52.563C35.9427 52.4901 35.901 52.3651 35.8281 52.188C35.7448 52.1568 35.651 52.1359 35.5469 52.1255C35.4531 52.1151 35.3542 52.0995 35.25 52.0786C34.8438 52.0057 34.4115 51.9536 33.9531 51.9224L33.7188 51.8599C33.4375 51.8286 33.224 51.787 33.0781 51.7349C33.0469 51.4328 33.0312 51.2401 33.0312 51.1568C33.0312 51.0318 33.0625 50.8599 33.125 50.6411C33.3333 50.5995 33.625 50.5786 34 50.5786C34.375 50.5786 34.6354 50.5734 34.7812 50.563C36.0521 50.6984 36.9948 50.7714 37.6094 50.7818C37.8906 50.7818 38.1719 50.7922 38.4531 50.813C38.7448 50.8234 39 50.8286 39.2188 50.8286C39.5625 50.8286 40.401 50.7766 41.7344 50.6724C41.9531 50.6203 42.1927 50.5943 42.4531 50.5943C42.8385 50.5943 43.1615 50.6151 43.4219 50.6568C43.4323 50.8755 43.4375 51.0318 43.4375 51.1255C43.4375 51.2922 43.4167 51.4953 43.375 51.7349L40.625 52.1724C40.3958 52.2766 40.2812 52.4276 40.2812 52.6255L40.3281 53.2036L40.3438 53.4536L40.3281 54.1411L40.2969 54.6724V54.7974C40.3073 54.912 40.3125 55.0109 40.3125 55.0943L40.2969 57.0786C40.3073 57.2661 40.3125 57.4068 40.3125 57.5005C40.3125 57.5526 40.3021 57.7193 40.2812 58.0005C40.2708 58.1672 40.2656 58.3391 40.2656 58.5161C40.2656 58.6724 40.2812 59.0422 40.3125 59.6255C40.6042 59.6776 40.849 59.7089 41.0469 59.7193L43.3594 59.7661H44.4844L47.2969 59.7818L50.0312 59.7036C50.3854 59.7036 50.7604 59.6672 51.1562 59.5943C51.1771 59.2401 51.1927 58.3703 51.2031 56.9849L51.2344 56.2818L51.1406 53.6255L51.0312 52.5318C51 52.4589 50.9271 52.3911 50.8125 52.3286C50.4479 52.1203 49.7188 51.8859 48.625 51.6255C48.4271 51.5839 48.2396 51.5318 48.0625 51.4693C48.0833 51.1047 48.125 50.8078 48.1875 50.5786C48.4167 50.5682 48.5573 50.563 48.6094 50.563L50.125 50.5786C51.0938 50.7036 52.0781 50.7661 53.0781 50.7661C53.3073 50.7661 53.4896 50.7609 53.625 50.7505L55.6562 50.688C55.8438 50.6776 56.026 50.6672 56.2031 50.6568C56.5781 50.5734 56.9635 50.5318 57.3594 50.5318C57.6615 50.5318 58.026 50.5474 58.4531 50.5786C58.4427 50.9849 58.4167 51.3547 58.375 51.688C57.4167 51.8859 56.7865 52.0318 56.4844 52.1255C56.1927 52.2089 55.8958 52.3286 55.5938 52.4849L55.5 52.7974V53.063L55.5156 53.4693L55.5 53.6724C55.4792 53.8911 55.4688 54.0578 55.4688 54.1724V54.563C55.4792 55.0318 55.4844 55.2922 55.4844 55.3443V57.3286L55.5 58.8286L55.4688 60.813C55.4583 61.2714 55.474 62.2089 55.5156 63.6255V65.8443L55.5469 67.688C55.5469 68.0318 55.5365 68.4484 55.5156 68.938C55.7344 69.0005 55.9375 69.0526 56.125 69.0943C57.1042 69.3026 57.8438 69.5161 58.3438 69.7349L58.3906 70.8286C57.974 70.8391 57.7292 70.8443 57.6562 70.8443C57.1562 70.8443 56.5833 70.813 55.9375 70.7505C55.0833 70.6568 53.7083 70.6099 51.8125 70.6099C50.9583 70.6099 49.8542 70.6776 48.5 70.813C48.3542 70.813 48.1771 70.7818 47.9688 70.7193C47.9792 70.2401 48.0052 69.9016 48.0469 69.7036L49.25 69.4224L50.5156 69.2193C50.6406 69.188 50.8021 69.1411 51 69.0786C51.1146 68.2349 51.1771 66.8339 51.1875 64.8755L51.2031 63.5474C51.1406 62.9953 51.1094 62.3339 51.1094 61.563C50.724 61.5318 50.3073 61.5109 49.8594 61.5005L42.6094 61.4224L42.4688 61.4068L42.3594 61.3911C42.2865 61.3911 42.2031 61.3964 42.1094 61.4068C41.8385 61.4172 41.6094 61.4224 41.4219 61.4224H40.9844C40.7865 61.4224 40.5625 61.4589 40.3125 61.5318L40.25 62.7036V62.9068C40.2708 63.188 40.2812 63.3703 40.2812 63.4536V68.2974C40.2812 68.5682 40.2969 68.8443 40.3281 69.1255L40.4844 69.2193L42.7812 69.5786C42.8958 69.6203 42.9844 69.6464 43.0469 69.6568C43.1823 69.688 43.2969 69.7349 43.3906 69.7974C43.4219 70.037 43.4375 70.1984 43.4375 70.2818C43.4375 70.4172 43.4167 70.6047 43.375 70.8443C43 70.8547 42.6823 70.8599 42.4219 70.8599C42.1927 70.8599 41.9792 70.8547 41.7812 70.8443C41.6875 70.8443 41.599 70.8391 41.5156 70.8286L39.3125 70.7349C38.7917 70.6828 38.0625 70.6568 37.125 70.6568L36.7969 70.6724C36.3594 70.6932 36.1042 70.7089 36.0312 70.7193C35.3854 70.8026 34.375 70.8443 33 70.8443ZM73.2188 59.5161C73.8854 60.162 74.3802 60.9068 74.7031 61.7505C75.0365 62.5839 75.2031 63.3703 75.2031 64.1099C75.2031 65.5057 74.9896 66.6307 74.5625 67.4849C73.9167 68.7766 73.0469 69.7297 71.9531 70.3443C70.8594 70.9589 69.5885 71.2661 68.1406 71.2661C66.5156 71.2661 65.1354 70.9016 64 70.1724C62.875 69.4432 62.0677 68.6151 61.5781 67.688C61.099 66.7609 60.8594 65.6099 60.8594 64.2349C60.8594 63.537 60.974 62.8391 61.2031 62.1411C61.4323 61.4328 61.7448 60.8182 62.1406 60.2974C62.5469 59.7766 62.9896 59.3391 63.4688 58.9849C64.1667 58.4849 64.8646 58.1307 65.5625 57.9224C66.2708 57.7036 67.125 57.5943 68.125 57.5943C70.3021 57.5943 72 58.2349 73.2188 59.5161ZM64.6719 64.9224C64.7656 66.2141 64.8333 66.9589 64.875 67.1568C65.0104 67.8547 65.224 68.4536 65.5156 68.9536C65.7135 69.2766 66.0417 69.563 66.5 69.813C66.9583 70.063 67.5052 70.188 68.1406 70.188C68.901 70.188 69.5417 69.9484 70.0625 69.4693C70.5833 68.9797 70.9583 68.2193 71.1875 67.188C71.3333 66.5109 71.4062 65.4016 71.4062 63.8599C71.4062 61.9641 71.0938 60.6255 70.4688 59.8443C69.8438 59.0526 69.0208 58.6568 68 58.6568C67.1979 58.6568 66.5312 58.8807 66 59.3286C65.4792 59.7766 65.1146 60.438 64.9062 61.313C64.7708 61.8755 64.6927 63.0786 64.6719 64.9224ZM77.1094 69.8755C77.1927 69.8339 77.3073 69.8078 77.4531 69.7974C78.0677 69.7557 78.5573 69.6464 78.9219 69.4693C78.9948 69.438 79.0365 69.3703 79.0469 69.2661C79.0677 69.162 79.099 68.2141 79.1406 66.4224V65.5161L79.1562 63.9068L79.1406 62.2349V61.8599C79.1406 61.3703 79.026 61.0109 78.7969 60.7818C78.5781 60.5422 77.9948 60.287 77.0469 60.0161V59.3755C77.2448 59.3234 77.4792 59.2661 77.75 59.2036C78.7083 59.0057 79.5 58.7245 80.125 58.3599C80.6042 58.0786 81.0781 57.6568 81.5469 57.0943H82.4062V57.3443L82.4531 58.5943L82.4375 59.1724L82.4688 59.4536C83.4583 58.6724 84.2812 58.1568 84.9375 57.9068C85.6042 57.6568 86.3646 57.5318 87.2188 57.5318C88.0417 57.5318 88.8333 57.7089 89.5938 58.063C90.3646 58.4172 91.0052 59.0109 91.5156 59.8443C92.2552 59.1255 92.875 58.6203 93.375 58.3286C93.7188 58.1307 94.1875 57.9589 94.7812 57.813C95.3854 57.6568 95.9531 57.5786 96.4844 57.5786C97.9323 57.5786 99.0781 58.0161 99.9219 58.8911C100.766 59.7766 101.188 60.9745 101.188 62.4849V64.9693C101.188 65.4797 101.172 66.3599 101.141 67.6099V68.813C101.141 69.0214 101.203 69.2245 101.328 69.4224C101.734 69.5995 102.083 69.7141 102.375 69.7661C102.583 69.7974 102.781 69.8703 102.969 69.9849C102.99 70.1724 103.016 70.3286 103.047 70.4536L103.031 70.7661C102.74 70.8182 102.531 70.8443 102.406 70.8443C102.323 70.8443 102.068 70.8234 101.641 70.7818C101.224 70.7297 100.693 70.7036 100.047 70.7036C98.474 70.7036 97.224 70.7557 96.2969 70.8599C96.224 70.5995 96.1875 70.3911 96.1875 70.2349L96.2031 70.0161C96.3385 69.9432 96.7865 69.7609 97.5469 69.4693C97.6823 69.3339 97.7604 69.2141 97.7812 69.1099C97.8333 68.8495 97.8594 68.2922 97.8594 67.438L97.7812 63.0318C97.7708 62.2922 97.7135 61.6828 97.6094 61.2036C97.5052 60.7141 97.349 60.3339 97.1406 60.063C96.9427 59.7818 96.6719 59.5526 96.3281 59.3755C95.9844 59.1984 95.625 59.1099 95.25 59.1099C94.6667 59.1099 94.0729 59.2766 93.4688 59.6099C92.8646 59.9328 92.3281 60.4276 91.8594 61.0943L91.8438 61.5474L91.875 63.5474L91.8438 65.188V66.7505L91.8281 68.1411C91.8281 68.8286 91.8958 69.2349 92.0312 69.3599C92.2396 69.5578 92.75 69.6984 93.5625 69.7818L94.0469 69.9536C94.1302 70.1932 94.1719 70.3807 94.1719 70.5161C94.1719 70.5891 94.151 70.7141 94.1094 70.8911L93.6562 70.8755H93.0312L92.7031 70.8599C91.9635 70.787 91.1979 70.7453 90.4062 70.7349L88.7344 70.7036C88.3281 70.7036 87.625 70.7505 86.625 70.8443L86.3438 70.7974L86.3281 69.8755C86.6406 69.7818 87.2031 69.7036 88.0156 69.6411C88.0677 69.6307 88.1354 69.6099 88.2188 69.5786C88.3333 69.4432 88.401 69.3286 88.4219 69.2349C88.474 69.0266 88.5 68.6047 88.5 67.9693L88.4844 64.7974L88.5156 63.9536C88.5156 62.3286 88.4583 61.3234 88.3438 60.938C88.1979 60.438 87.8906 60.0318 87.4219 59.7193C86.9635 59.3964 86.4115 59.2349 85.7656 59.2349C84.9219 59.2349 84.1875 59.438 83.5625 59.8443C82.9375 60.2401 82.5781 60.5943 82.4844 60.9068C82.474 61.0318 82.4688 61.1255 82.4688 61.188L82.4844 61.3443V61.5005C82.4844 61.5943 82.4583 61.7401 82.4062 61.938L82.4531 66.4224L82.4688 68.7661C82.4688 68.8495 82.4792 68.9849 82.5 69.1724L82.5781 69.4068C82.8698 69.5005 83.1198 69.5682 83.3281 69.6099C83.7135 69.6932 84.0052 69.787 84.2031 69.8911C84.2344 70.0682 84.25 70.1932 84.25 70.2661C84.25 70.4016 84.2083 70.5943 84.125 70.8443C83.9583 70.8547 83.8385 70.8599 83.7656 70.8599C83.651 70.8599 83.1302 70.813 82.2031 70.7193L80.5 70.7036C79.6875 70.7036 78.7031 70.7609 77.5469 70.8755L77.0938 70.8599C77.0729 70.6932 77.0521 70.5005 77.0312 70.2818C77.0312 70.188 77.0573 70.0526 77.1094 69.8755ZM104.719 62.6255C104.99 61.7401 105.229 61.1516 105.438 60.8599C106.021 60.0057 106.641 59.3391 107.297 58.8599C107.964 58.3807 108.562 58.063 109.094 57.9068C109.781 57.7089 110.339 57.6099 110.766 57.6099C111.745 57.6099 112.536 57.688 113.141 57.8443C113.745 57.9901 114.25 58.2036 114.656 58.4849C115.24 58.8911 115.708 59.3026 116.062 59.7193C116.417 60.1359 116.703 60.6255 116.922 61.188C117.151 61.7505 117.276 62.4328 117.297 63.2349L115.562 63.2036C115.083 63.2036 114.031 63.1568 112.406 63.063C111.802 63.0214 111.385 63.0005 111.156 63.0005C111.083 63.0005 110.521 63.0057 109.469 63.0161H108.125C108.104 63.162 108.094 63.287 108.094 63.3911C108.094 63.9432 108.161 64.5266 108.297 65.1411C108.432 65.7453 108.635 66.2818 108.906 66.7505C109.177 67.2089 109.51 67.6047 109.906 67.938C110.312 68.2714 110.729 68.5109 111.156 68.6568L112.062 68.9536C112.865 68.9536 113.401 68.9276 113.672 68.8755C114.172 68.7714 114.609 68.6411 114.984 68.4849C115.37 68.3182 115.833 68.0422 116.375 67.6568C116.75 67.9276 117.062 68.1724 117.312 68.3911C116.396 69.4016 115.443 70.1359 114.453 70.5943C113.474 71.0422 112.375 71.2661 111.156 71.2661C110.333 71.2661 109.661 71.1932 109.141 71.0474C108.443 70.8599 107.812 70.5734 107.25 70.188C106.688 69.8026 106.203 69.3234 105.797 68.7505C105.391 68.1776 105.089 67.5891 104.891 66.9849C104.63 66.1932 104.5 65.5578 104.5 65.0786C104.5 64.1724 104.573 63.3547 104.719 62.6255ZM113.797 61.9536C113.786 61.3703 113.672 60.813 113.453 60.2818C113.234 59.7505 112.896 59.3391 112.438 59.0474C111.979 58.7453 111.516 58.5943 111.047 58.5943C110.349 58.5943 109.719 58.9016 109.156 59.5161C108.594 60.1307 108.276 60.9641 108.203 62.0161L111.766 62.0318C111.995 62.0318 112.318 62.0161 112.734 61.9849C113.036 61.9536 113.25 61.938 113.375 61.938C113.469 61.938 113.609 61.9432 113.797 61.9536Z" fill="white"/>
<path d="M127.312 71.0005L127.344 69.8755C127.573 69.8234 127.953 69.7453 128.484 69.6411C129.016 69.537 129.547 69.4172 130.078 69.2818L130.375 69.0943C130.479 68.6776 130.531 68.2505 130.531 67.813V67.7193L130.469 64.1099L130.484 62.5943L130.422 60.3599L130.453 57.7036L130.266 52.4693C130.109 52.3234 129.604 52.1776 128.75 52.0318C128.542 51.9901 128.24 51.9068 127.844 51.7818L127.469 51.688V50.5943L129.531 50.6724C130.781 50.7974 132.62 50.8599 135.047 50.8599C136.266 50.8599 137.536 50.8286 138.859 50.7661L139.156 50.7505L139.922 50.7661L140.234 50.7505H140.891L143.688 50.6568C143.812 50.6568 143.974 50.6464 144.172 50.6255C144.38 50.6047 144.573 50.5891 144.75 50.5786C144.812 50.8911 144.854 51.2036 144.875 51.5161L145.109 54.4536C145.109 54.7661 145.078 55.0057 145.016 55.1724C144.641 55.2245 144.365 55.2505 144.188 55.2505C143.979 55.2505 143.812 55.2036 143.688 55.1099C143.625 55.0474 143.505 54.813 143.328 54.4068C142.891 53.3547 142.516 52.7349 142.203 52.5474C141.901 52.3495 141.047 52.2505 139.641 52.2505L137.484 52.313C136.568 52.3234 135.844 52.3755 135.312 52.4693C135.198 52.4901 135.031 52.5422 134.812 52.6255C134.677 52.8651 134.609 53.1724 134.609 53.5474L134.656 55.4068L134.609 57.5318C134.609 58.6151 134.646 59.2818 134.719 59.5318C134.812 59.5943 134.891 59.6307 134.953 59.6411L136.062 59.6568H137.938C138.354 59.6672 138.995 59.6203 139.859 59.5161C140.453 59.4432 140.818 59.3599 140.953 59.2661C141.203 59.0995 141.38 58.8911 141.484 58.6411C141.599 58.3807 141.682 57.7557 141.734 56.7661C141.786 56.7661 141.927 56.7609 142.156 56.7505C142.302 56.7401 142.401 56.7349 142.453 56.7349C142.568 56.7349 142.797 56.7505 143.141 56.7818L143.047 59.2818C143.036 59.813 143.016 60.2714 142.984 60.6568L143.016 61.0005C143.026 61.1047 143.031 61.8755 143.031 63.313C143.031 63.4068 143.026 63.563 143.016 63.7818C142.818 63.8234 142.661 63.8443 142.547 63.8443C142.464 63.8443 142.26 63.813 141.938 63.7505C141.844 63.5526 141.74 63.2661 141.625 62.8911C141.385 62.0682 141.125 61.5891 140.844 61.4536C140.344 61.2036 138.771 61.0786 136.125 61.0786C135.74 61.0786 135.292 61.1151 134.781 61.188C134.708 61.6255 134.672 62.1307 134.672 62.7036L134.75 67.3911C134.76 68.2557 134.854 68.787 135.031 68.9849C135.146 69.1099 135.536 69.2349 136.203 69.3599L136.516 69.3911C136.984 69.4224 137.396 69.4901 137.75 69.5943L138.172 69.688C138.214 69.9589 138.234 70.1672 138.234 70.313C138.234 70.4693 138.219 70.6672 138.188 70.9068L137.891 70.8911L137.406 70.9068L135.188 70.7974C134.938 70.787 133.771 70.7818 131.688 70.7818C131.115 70.7818 130.568 70.813 130.047 70.8755C129.224 70.9693 128.776 71.0161 128.703 71.0161C128.026 71.0161 127.562 71.0109 127.312 71.0005ZM146.766 70.2193C146.995 70.063 147.297 69.9641 147.672 69.9224C148.391 69.8391 148.802 69.7297 148.906 69.5943C149.115 69.3234 149.219 68.7714 149.219 67.938V63.5318L149.203 62.4849V59.3286L149.156 55.7193V55.0943C149.156 54.2401 149.089 53.6099 148.953 53.2036C148.589 52.9849 148.198 52.8755 147.781 52.8755C147.531 52.8755 147.297 52.8495 147.078 52.7974C147.047 52.537 147.031 52.3443 147.031 52.2193C147.031 52.1359 147.042 52.0422 147.062 51.938C147.885 51.8443 148.74 51.6359 149.625 51.313C150.51 50.9797 151.188 50.6411 151.656 50.2974L152.094 50.2818C152.188 50.2818 152.323 50.287 152.5 50.2974C152.552 53.9016 152.578 56.3703 152.578 57.7036C152.578 58.0995 152.573 58.4172 152.562 58.6568V58.7505L152.578 59.0474V65.9693L152.594 68.2505V68.6255C152.594 69.0734 152.667 69.3911 152.812 69.5786C152.938 69.7141 153.203 69.7974 153.609 69.8286C153.828 69.8495 154.26 69.9016 154.906 69.9849C154.958 70.2036 154.984 70.3807 154.984 70.5161C154.984 70.6203 154.974 70.7661 154.953 70.9536L153.719 70.8911C153.031 70.8391 152.167 70.813 151.125 70.813L150.547 70.7974C149.953 70.7974 149.094 70.8443 147.969 70.938H146.828L146.766 70.2193ZM156.344 62.6255C156.615 61.7401 156.854 61.1516 157.062 60.8599C157.646 60.0057 158.266 59.3391 158.922 58.8599C159.589 58.3807 160.188 58.063 160.719 57.9068C161.406 57.7089 161.964 57.6099 162.391 57.6099C163.37 57.6099 164.161 57.688 164.766 57.8443C165.37 57.9901 165.875 58.2036 166.281 58.4849C166.865 58.8911 167.333 59.3026 167.688 59.7193C168.042 60.1359 168.328 60.6255 168.547 61.188C168.776 61.7505 168.901 62.4328 168.922 63.2349L167.188 63.2036C166.708 63.2036 165.656 63.1568 164.031 63.063C163.427 63.0214 163.01 63.0005 162.781 63.0005C162.708 63.0005 162.146 63.0057 161.094 63.0161H159.75C159.729 63.162 159.719 63.287 159.719 63.3911C159.719 63.9432 159.786 64.5266 159.922 65.1411C160.057 65.7453 160.26 66.2818 160.531 66.7505C160.802 67.2089 161.135 67.6047 161.531 67.938C161.938 68.2714 162.354 68.5109 162.781 68.6568L163.688 68.9536C164.49 68.9536 165.026 68.9276 165.297 68.8755C165.797 68.7714 166.234 68.6411 166.609 68.4849C166.995 68.3182 167.458 68.0422 168 67.6568C168.375 67.9276 168.688 68.1724 168.938 68.3911C168.021 69.4016 167.068 70.1359 166.078 70.5943C165.099 71.0422 164 71.2661 162.781 71.2661C161.958 71.2661 161.286 71.1932 160.766 71.0474C160.068 70.8599 159.438 70.5734 158.875 70.188C158.312 69.8026 157.828 69.3234 157.422 68.7505C157.016 68.1776 156.714 67.5891 156.516 66.9849C156.255 66.1932 156.125 65.5578 156.125 65.0786C156.125 64.1724 156.198 63.3547 156.344 62.6255ZM165.422 61.9536C165.411 61.3703 165.297 60.813 165.078 60.2818C164.859 59.7505 164.521 59.3391 164.062 59.0474C163.604 58.7453 163.141 58.5943 162.672 58.5943C161.974 58.5943 161.344 58.9016 160.781 59.5161C160.219 60.1307 159.901 60.9641 159.828 62.0161L163.391 62.0318C163.62 62.0318 163.943 62.0161 164.359 61.9849C164.661 61.9536 164.875 61.938 165 61.938C165.094 61.938 165.234 61.9432 165.422 61.9536ZM170.297 70.188C170.818 70.0109 171.26 69.8234 171.625 69.6255C171.865 69.4901 172.068 69.3495 172.234 69.2036C172.411 69.0578 172.812 68.6828 173.438 68.0786L176.297 65.2505L176.5 65.0161C176.438 64.9641 175.818 64.3547 174.641 63.188L174.438 62.8911C173.979 62.4224 173.625 62.0474 173.375 61.7661L173.062 61.4849C172.344 60.662 171.844 60.1307 171.562 59.8911C171.479 59.8182 171.214 59.6724 170.766 59.4536C170.693 59.412 170.578 59.3495 170.422 59.2661C170.359 59.037 170.328 58.8703 170.328 58.7661C170.328 58.5161 170.354 58.3495 170.406 58.2661C170.458 58.2245 170.526 58.1984 170.609 58.188C170.776 58.2089 170.896 58.2193 170.969 58.2193L171.422 58.2036L171.656 58.2349L172.469 58.2818C173.26 58.2818 174.255 58.2453 175.453 58.1724H177.156C177.177 58.3286 177.188 58.4589 177.188 58.563C177.188 58.6984 177.146 58.8755 177.062 59.0943C176.615 59.2401 176.297 59.3911 176.109 59.5474L176.047 59.7036C176.047 59.787 176.109 59.8911 176.234 60.0161L178.75 62.7193L180.953 60.0786C181.13 59.8182 181.219 59.6307 181.219 59.5161V59.4068C180.979 59.2505 180.526 59.1203 179.859 59.0161C179.818 58.7974 179.797 58.5995 179.797 58.4224V58.1724H180.078C180.266 58.1724 180.594 58.1984 181.062 58.2505C181.771 58.2609 182.37 58.2818 182.859 58.313C183.016 58.313 183.229 58.2922 183.5 58.2505C183.885 58.1984 184.12 58.1724 184.203 58.1724L184.484 58.188H185.156V58.4224C185.156 58.5995 185.125 58.787 185.062 58.9849C184.896 59.0786 184.667 59.1672 184.375 59.2505C183.677 59.4484 183.198 59.6307 182.938 59.7974C182.844 59.8599 182.516 60.1776 181.953 60.7505C180.849 61.8964 180.031 62.7922 179.5 63.438L182.312 66.6724C183.417 68.0266 184.125 68.8599 184.438 69.1724C184.688 69.412 185.026 69.6724 185.453 69.9536C185.516 70.0891 185.547 70.2505 185.547 70.438V70.8911C185.318 70.8911 185.115 70.8859 184.938 70.8755C183.583 70.7922 182.609 70.7505 182.016 70.7505C181.891 70.7505 181.661 70.7661 181.328 70.7974H180.828C180.068 70.8807 179.448 70.9224 178.969 70.9224L178.766 70.9068C178.745 70.7089 178.734 70.563 178.734 70.4693C178.734 70.3964 178.74 70.2922 178.75 70.1568C179.021 69.9901 179.297 69.8443 179.578 69.7193C179.734 69.6359 179.906 69.5318 180.094 69.4068C180.062 69.1776 180.01 69.0057 179.938 68.8911C179.823 68.7141 179.589 68.4484 179.234 68.0943C179.12 68.0005 178.75 67.5734 178.125 66.813C177.875 66.5214 177.589 66.2193 177.266 65.9068C176.016 67.063 175.234 67.8547 174.922 68.2818C174.724 68.563 174.625 68.813 174.625 69.0318C174.625 69.2089 174.682 69.3703 174.797 69.5161C174.922 69.662 175.13 69.787 175.422 69.8911C175.62 69.9536 175.786 70.0161 175.922 70.0786L176.125 70.1568C176.146 70.2609 176.156 70.3391 176.156 70.3911C176.156 70.5057 176.12 70.6672 176.047 70.8755C175.891 70.8755 175.667 70.8547 175.375 70.813C174.917 70.7609 174.406 70.7349 173.844 70.7349C173.052 70.7349 172.266 70.7661 171.484 70.8286C170.964 70.8599 170.573 70.8807 170.312 70.8911C170.302 70.7036 170.297 70.563 170.297 70.4693V70.188Z" fill="#01C598"/>
<path d="M56.7073 86.0005H55.7618L58.4964 78.5532H59.4273L62.1618 86.0005H61.2164L58.9909 79.7314H58.9327L56.7073 86.0005ZM57.0564 83.0914H60.8673V83.8914H57.0564V83.0914ZM65.4745 86.1169C64.9509 86.1169 64.5 85.9932 64.1218 85.746C63.7436 85.4987 63.4527 85.1581 63.2491 84.7242C63.0455 84.2902 62.9436 83.7945 62.9436 83.2369C62.9436 82.6696 63.0479 82.169 63.2564 81.7351C63.4673 81.2987 63.7606 80.9581 64.1364 80.7132C64.5145 80.466 64.9558 80.3423 65.46 80.3423C65.8527 80.3423 66.2067 80.4151 66.5218 80.5605C66.837 80.706 67.0952 80.9096 67.2964 81.1714C67.4976 81.4332 67.6224 81.7387 67.6709 82.0878H66.8127C66.7473 81.8332 66.6018 81.6078 66.3764 81.4114C66.1533 81.2126 65.8527 81.1132 65.4745 81.1132C65.14 81.1132 64.8467 81.2005 64.5945 81.3751C64.3448 81.5472 64.1497 81.7908 64.0091 82.106C63.8709 82.4187 63.8018 82.786 63.8018 83.2078C63.8018 83.6393 63.8697 84.0151 64.0055 84.3351C64.1436 84.6551 64.3376 84.9035 64.5873 85.0805C64.8394 85.2575 65.1352 85.346 65.4745 85.346C65.6976 85.346 65.9 85.3072 66.0818 85.2296C66.2636 85.152 66.4176 85.0405 66.5436 84.8951C66.6697 84.7496 66.7594 84.5751 66.8127 84.3714H67.6709C67.6224 84.7011 67.5024 84.9981 67.3109 85.2623C67.1218 85.5242 66.8709 85.7326 66.5582 85.8878C66.2479 86.0405 65.8867 86.1169 65.4745 86.1169ZM71.1945 86.1169C70.6709 86.1169 70.22 85.9932 69.8418 85.746C69.4636 85.4987 69.1727 85.1581 68.9691 84.7242C68.7655 84.2902 68.6636 83.7945 68.6636 83.2369C68.6636 82.6696 68.7679 82.169 68.9764 81.7351C69.1873 81.2987 69.4806 80.9581 69.8564 80.7132C70.2345 80.466 70.6758 80.3423 71.18 80.3423C71.5727 80.3423 71.9267 80.4151 72.2418 80.5605C72.557 80.706 72.8152 80.9096 73.0164 81.1714C73.2176 81.4332 73.3424 81.7387 73.3909 82.0878H72.5327C72.4673 81.8332 72.3218 81.6078 72.0964 81.4114C71.8733 81.2126 71.5727 81.1132 71.1945 81.1132C70.86 81.1132 70.5667 81.2005 70.3145 81.3751C70.0648 81.5472 69.8697 81.7908 69.7291 82.106C69.5909 82.4187 69.5218 82.786 69.5218 83.2078C69.5218 83.6393 69.5897 84.0151 69.7255 84.3351C69.8636 84.6551 70.0576 84.9035 70.3073 85.0805C70.5594 85.2575 70.8552 85.346 71.1945 85.346C71.4176 85.346 71.62 85.3072 71.8018 85.2296C71.9836 85.152 72.1376 85.0405 72.2636 84.8951C72.3897 84.7496 72.4794 84.5751 72.5327 84.3714H73.3909C73.3424 84.7011 73.2224 84.9981 73.0309 85.2623C72.8418 85.5242 72.5909 85.7326 72.2782 85.8878C71.9679 86.0405 71.6067 86.1169 71.1945 86.1169ZM76.9145 86.1169C76.4103 86.1169 75.9679 85.9969 75.5873 85.7569C75.2091 85.5169 74.9133 85.1811 74.7 84.7496C74.4891 84.3181 74.3836 83.8139 74.3836 83.2369C74.3836 82.6551 74.4891 82.1472 74.7 81.7132C74.9133 81.2793 75.2091 80.9423 75.5873 80.7023C75.9679 80.4623 76.4103 80.3423 76.9145 80.3423C77.4188 80.3423 77.86 80.4623 78.2382 80.7023C78.6188 80.9423 78.9145 81.2793 79.1255 81.7132C79.3388 82.1472 79.4455 82.6551 79.4455 83.2369C79.4455 83.8139 79.3388 84.3181 79.1255 84.7496C78.9145 85.1811 78.6188 85.5169 78.2382 85.7569C77.86 85.9969 77.4188 86.1169 76.9145 86.1169ZM76.9145 85.346C77.2976 85.346 77.6127 85.2478 77.86 85.0514C78.1073 84.8551 78.2903 84.5969 78.4091 84.2769C78.5279 83.9569 78.5873 83.6102 78.5873 83.2369C78.5873 82.8635 78.5279 82.5157 78.4091 82.1932C78.2903 81.8708 78.1073 81.6102 77.86 81.4114C77.6127 81.2126 77.2976 81.1132 76.9145 81.1132C76.5315 81.1132 76.2164 81.2126 75.9691 81.4114C75.7218 81.6102 75.5388 81.8708 75.42 82.1932C75.3012 82.5157 75.2418 82.8635 75.2418 83.2369C75.2418 83.6102 75.3012 83.9569 75.42 84.2769C75.5388 84.5969 75.7218 84.8551 75.9691 85.0514C76.2164 85.2478 76.5315 85.346 76.9145 85.346ZM80.7555 86.0005V80.4151H81.5845V81.2878H81.6573C81.7736 80.9896 81.9615 80.7581 82.2209 80.5932C82.4803 80.426 82.7918 80.3423 83.1555 80.3423C83.5239 80.3423 83.8306 80.426 84.0755 80.5932C84.3227 80.7581 84.5155 80.9896 84.6536 81.2878H84.7118C84.8548 80.9993 85.0694 80.7702 85.3555 80.6005C85.6415 80.4284 85.9845 80.3423 86.3845 80.3423C86.8839 80.3423 87.2924 80.4987 87.61 80.8114C87.9276 81.1217 88.0864 81.6054 88.0864 82.2623V86.0005H87.2282V82.2623C87.2282 81.8502 87.1155 81.5557 86.89 81.3787C86.6645 81.2017 86.3991 81.1132 86.0936 81.1132C85.7009 81.1132 85.3967 81.232 85.1809 81.4696C84.9652 81.7048 84.8573 82.0029 84.8573 82.3642V86.0005H83.9845V82.1751C83.9845 81.8575 83.8815 81.6017 83.6755 81.4078C83.4694 81.2114 83.2039 81.1132 82.8791 81.1132C82.6561 81.1132 82.4476 81.1726 82.2536 81.2914C82.0621 81.4102 81.907 81.5751 81.7882 81.786C81.6718 81.9945 81.6136 82.2357 81.6136 82.5096V86.0005H80.7555ZM89.6555 86.0005V80.4151H90.4845V81.2878H90.5573C90.6736 80.9896 90.8615 80.7581 91.1209 80.5932C91.3803 80.426 91.6918 80.3423 92.0555 80.3423C92.4239 80.3423 92.7306 80.426 92.9755 80.5932C93.2227 80.7581 93.4155 80.9896 93.5536 81.2878H93.6118C93.7548 80.9993 93.9694 80.7702 94.2555 80.6005C94.5415 80.4284 94.8845 80.3423 95.2845 80.3423C95.7839 80.3423 96.1924 80.4987 96.51 80.8114C96.8276 81.1217 96.9864 81.6054 96.9864 82.2623V86.0005H96.1282V82.2623C96.1282 81.8502 96.0155 81.5557 95.79 81.3787C95.5645 81.2017 95.2991 81.1132 94.9936 81.1132C94.6009 81.1132 94.2967 81.232 94.0809 81.4696C93.8652 81.7048 93.7573 82.0029 93.7573 82.3642V86.0005H92.8845V82.1751C92.8845 81.8575 92.7815 81.6017 92.5755 81.4078C92.3694 81.2114 92.1039 81.1132 91.7791 81.1132C91.5561 81.1132 91.3476 81.1726 91.1536 81.2914C90.9621 81.4102 90.807 81.5751 90.6882 81.786C90.5718 81.9945 90.5136 82.2357 90.5136 82.5096V86.0005H89.6555ZM100.825 86.1169C100.32 86.1169 99.8779 85.9969 99.4973 85.7569C99.1191 85.5169 98.8233 85.1811 98.61 84.7496C98.3991 84.3181 98.2936 83.8139 98.2936 83.2369C98.2936 82.6551 98.3991 82.1472 98.61 81.7132C98.8233 81.2793 99.1191 80.9423 99.4973 80.7023C99.8779 80.4623 100.32 80.3423 100.825 80.3423C101.329 80.3423 101.77 80.4623 102.148 80.7023C102.529 80.9423 102.825 81.2793 103.035 81.7132C103.249 82.1472 103.355 82.6551 103.355 83.2369C103.355 83.8139 103.249 84.3181 103.035 84.7496C102.825 85.1811 102.529 85.5169 102.148 85.7569C101.77 85.9969 101.329 86.1169 100.825 86.1169ZM100.825 85.346C101.208 85.346 101.523 85.2478 101.77 85.0514C102.017 84.8551 102.2 84.5969 102.319 84.2769C102.438 83.9569 102.497 83.6102 102.497 83.2369C102.497 82.8635 102.438 82.5157 102.319 82.1932C102.2 81.8708 102.017 81.6102 101.77 81.4114C101.523 81.2126 101.208 81.1132 100.825 81.1132C100.442 81.1132 100.126 81.2126 99.8791 81.4114C99.6318 81.6102 99.4488 81.8708 99.33 82.1932C99.2112 82.5157 99.1518 82.8635 99.1518 83.2369C99.1518 83.6102 99.2112 83.9569 99.33 84.2769C99.4488 84.5969 99.6318 84.8551 99.8791 85.0514C100.126 85.2478 100.442 85.346 100.825 85.346ZM106.775 86.1169C106.309 86.1169 105.898 85.9993 105.542 85.7642C105.185 85.5266 104.907 85.192 104.705 84.7605C104.504 84.3266 104.404 83.8139 104.404 83.2223C104.404 82.6357 104.504 82.1266 104.705 81.6951C104.907 81.2635 105.187 80.9302 105.545 80.6951C105.904 80.4599 106.319 80.3423 106.789 80.3423C107.153 80.3423 107.44 80.4029 107.651 80.5242C107.864 80.6429 108.027 80.7787 108.138 80.9314C108.252 81.0817 108.341 81.2054 108.404 81.3023H108.476V78.5532H109.335V86.0005H108.505V85.1423H108.404C108.341 85.2442 108.251 85.3726 108.135 85.5278C108.018 85.6805 107.852 85.8175 107.636 85.9387C107.421 86.0575 107.133 86.1169 106.775 86.1169ZM106.891 85.346C107.235 85.346 107.526 85.2563 107.764 85.0769C108.001 84.8951 108.182 84.6442 108.305 84.3242C108.429 84.0017 108.491 83.6296 108.491 83.2078C108.491 82.7908 108.43 82.426 108.309 82.1132C108.188 81.7981 108.008 81.5532 107.771 81.3787C107.533 81.2017 107.24 81.1132 106.891 81.1132C106.527 81.1132 106.224 81.2066 105.982 81.3932C105.742 81.5775 105.561 81.8284 105.44 82.146C105.321 82.4611 105.262 82.8151 105.262 83.2078C105.262 83.6054 105.322 83.9666 105.444 84.2914C105.567 84.6139 105.749 84.8708 105.989 85.0623C106.232 85.2514 106.532 85.346 106.891 85.346ZM112.669 86.1314C112.315 86.1314 111.994 86.0648 111.705 85.9314C111.417 85.7957 111.188 85.6005 111.018 85.346C110.848 85.089 110.764 84.7787 110.764 84.4151C110.764 84.0951 110.827 83.8357 110.953 83.6369C111.079 83.4357 111.247 83.2781 111.458 83.1642C111.669 83.0502 111.902 82.9654 112.156 82.9096C112.413 82.8514 112.672 82.8054 112.931 82.7714C113.27 82.7278 113.545 82.6951 113.756 82.6732C113.97 82.649 114.125 82.609 114.222 82.5532C114.321 82.4975 114.371 82.4005 114.371 82.2623V82.2332C114.371 81.8745 114.273 81.5957 114.076 81.3969C113.882 81.1981 113.588 81.0987 113.193 81.0987C112.783 81.0987 112.462 81.1884 112.229 81.3678C111.996 81.5472 111.833 81.7387 111.738 81.9423L110.924 81.6514C111.069 81.312 111.263 81.0478 111.505 80.8587C111.75 80.6672 112.017 80.5339 112.305 80.4587C112.596 80.3811 112.882 80.3423 113.164 80.3423C113.343 80.3423 113.549 80.3642 113.782 80.4078C114.017 80.449 114.244 80.5351 114.462 80.666C114.682 80.7969 114.865 80.9945 115.011 81.2587C115.156 81.5229 115.229 81.8769 115.229 82.3205V86.0005H114.371V85.2442H114.327C114.269 85.3654 114.172 85.4951 114.036 85.6332C113.901 85.7714 113.72 85.889 113.495 85.986C113.269 86.0829 112.994 86.1314 112.669 86.1314ZM112.8 85.3605C113.139 85.3605 113.425 85.2939 113.658 85.1605C113.893 85.0272 114.07 84.8551 114.189 84.6442C114.31 84.4332 114.371 84.2114 114.371 83.9787V83.1932C114.335 83.2369 114.255 83.2769 114.131 83.3132C114.01 83.3472 113.869 83.3775 113.709 83.4042C113.552 83.4284 113.398 83.4502 113.247 83.4696C113.099 83.4866 112.979 83.5011 112.887 83.5132C112.664 83.5423 112.456 83.5896 112.262 83.6551C112.07 83.7181 111.915 83.8139 111.796 83.9423C111.68 84.0684 111.622 84.2405 111.622 84.4587C111.622 84.7569 111.732 84.9823 111.953 85.1351C112.176 85.2854 112.458 85.3605 112.8 85.3605ZM119.225 80.4151V81.1423H116.33V80.4151H119.225ZM117.174 79.0769H118.032V84.4005C118.032 84.6429 118.067 84.8248 118.137 84.946C118.21 85.0648 118.302 85.1448 118.414 85.186C118.528 85.2248 118.648 85.2442 118.774 85.2442C118.868 85.2442 118.946 85.2393 119.006 85.2296C119.067 85.2175 119.115 85.2078 119.152 85.2005L119.326 85.9714C119.268 85.9932 119.187 86.0151 119.083 86.0369C118.978 86.0611 118.846 86.0732 118.686 86.0732C118.444 86.0732 118.206 86.0211 117.974 85.9169C117.743 85.8126 117.552 85.6539 117.399 85.4405C117.249 85.2272 117.174 84.9581 117.174 84.6332V79.0769ZM120.515 86.0005V80.4151H121.374V86.0005H120.515ZM120.952 79.4842C120.785 79.4842 120.64 79.4272 120.519 79.3132C120.4 79.1993 120.341 79.0623 120.341 78.9023C120.341 78.7423 120.4 78.6054 120.519 78.4914C120.64 78.3775 120.785 78.3205 120.952 78.3205C121.119 78.3205 121.262 78.3775 121.381 78.4914C121.502 78.6054 121.563 78.7423 121.563 78.9023C121.563 79.0623 121.502 79.1993 121.381 79.3132C121.262 79.4272 121.119 79.4842 120.952 79.4842ZM125.215 86.1169C124.71 86.1169 124.268 85.9969 123.887 85.7569C123.509 85.5169 123.213 85.1811 123 84.7496C122.789 84.3181 122.684 83.8139 122.684 83.2369C122.684 82.6551 122.789 82.1472 123 81.7132C123.213 81.2793 123.509 80.9423 123.887 80.7023C124.268 80.4623 124.71 80.3423 125.215 80.3423C125.719 80.3423 126.16 80.4623 126.538 80.7023C126.919 80.9423 127.215 81.2793 127.425 81.7132C127.639 82.1472 127.745 82.6551 127.745 83.2369C127.745 83.8139 127.639 84.3181 127.425 84.7496C127.215 85.1811 126.919 85.5169 126.538 85.7569C126.16 85.9969 125.719 86.1169 125.215 86.1169ZM125.215 85.346C125.598 85.346 125.913 85.2478 126.16 85.0514C126.407 84.8551 126.59 84.5969 126.709 84.2769C126.828 83.9569 126.887 83.6102 126.887 83.2369C126.887 82.8635 126.828 82.5157 126.709 82.1932C126.59 81.8708 126.407 81.6102 126.16 81.4114C125.913 81.2126 125.598 81.1132 125.215 81.1132C124.832 81.1132 124.516 81.2126 124.269 81.4114C124.022 81.6102 123.839 81.8708 123.72 82.1932C123.601 82.5157 123.542 82.8635 123.542 83.2369C123.542 83.6102 123.601 83.9569 123.72 84.2769C123.839 84.5969 124.022 84.8551 124.269 85.0514C124.516 85.2478 124.832 85.346 125.215 85.346ZM129.914 82.6405V86.0005H129.055V80.4151H129.885V81.2878H129.957C130.088 81.0042 130.287 80.7763 130.554 80.6042C130.82 80.4296 131.165 80.3423 131.586 80.3423C131.965 80.3423 132.295 80.4199 132.579 80.5751C132.863 80.7278 133.083 80.9605 133.241 81.2732C133.398 81.5835 133.477 81.9763 133.477 82.4514V86.0005H132.619V82.5096C132.619 82.0708 132.505 81.729 132.277 81.4842C132.049 81.2369 131.737 81.1132 131.339 81.1132C131.065 81.1132 130.82 81.1726 130.605 81.2914C130.391 81.4102 130.223 81.5835 130.099 81.8114C129.975 82.0393 129.914 82.3157 129.914 82.6405Z" fill="white"/>
<line x1="136" y1="77.5005" x2="136" y2="87.5005" stroke="white"/>
<path d="M139.402 86.0005V78.5532H140.304V85.2005H143.765V86.0005H139.402ZM147.315 86.1169C146.81 86.1169 146.368 85.9969 145.987 85.7569C145.609 85.5169 145.313 85.1811 145.1 84.7496C144.889 84.3181 144.784 83.8139 144.784 83.2369C144.784 82.6551 144.889 82.1472 145.1 81.7132C145.313 81.2793 145.609 80.9423 145.987 80.7023C146.368 80.4623 146.81 80.3423 147.315 80.3423C147.819 80.3423 148.26 80.4623 148.638 80.7023C149.019 80.9423 149.315 81.2793 149.525 81.7132C149.739 82.1472 149.845 82.6551 149.845 83.2369C149.845 83.8139 149.739 84.3181 149.525 84.7496C149.315 85.1811 149.019 85.5169 148.638 85.7569C148.26 85.9969 147.819 86.1169 147.315 86.1169ZM147.315 85.346C147.698 85.346 148.013 85.2478 148.26 85.0514C148.507 84.8551 148.69 84.5969 148.809 84.2769C148.928 83.9569 148.987 83.6102 148.987 83.2369C148.987 82.8635 148.928 82.5157 148.809 82.1932C148.69 81.8708 148.507 81.6102 148.26 81.4114C148.013 81.2126 147.698 81.1132 147.315 81.1132C146.932 81.1132 146.616 81.2126 146.369 81.4114C146.122 81.6102 145.939 81.8708 145.82 82.1932C145.701 82.5157 145.642 82.8635 145.642 83.2369C145.642 83.6102 145.701 83.9569 145.82 84.2769C145.939 84.5969 146.122 84.8551 146.369 85.0514C146.616 85.2478 146.932 85.346 147.315 85.346ZM152.799 86.1314C152.445 86.1314 152.124 86.0648 151.835 85.9314C151.547 85.7957 151.318 85.6005 151.148 85.346C150.978 85.089 150.894 84.7787 150.894 84.4151C150.894 84.0951 150.957 83.8357 151.083 83.6369C151.209 83.4357 151.377 83.2781 151.588 83.1642C151.799 83.0502 152.032 82.9654 152.286 82.9096C152.543 82.8514 152.802 82.8054 153.061 82.7714C153.4 82.7278 153.675 82.6951 153.886 82.6732C154.1 82.649 154.255 82.609 154.352 82.5532C154.451 82.4975 154.501 82.4005 154.501 82.2623V82.2332C154.501 81.8745 154.403 81.5957 154.206 81.3969C154.012 81.1981 153.718 81.0987 153.323 81.0987C152.913 81.0987 152.592 81.1884 152.359 81.3678C152.126 81.5472 151.963 81.7387 151.868 81.9423L151.054 81.6514C151.199 81.312 151.393 81.0478 151.635 80.8587C151.88 80.6672 152.147 80.5339 152.435 80.4587C152.726 80.3811 153.012 80.3423 153.294 80.3423C153.473 80.3423 153.679 80.3642 153.912 80.4078C154.147 80.449 154.374 80.5351 154.592 80.666C154.812 80.7969 154.995 80.9945 155.141 81.2587C155.286 81.5229 155.359 81.8769 155.359 82.3205V86.0005H154.501V85.2442H154.457C154.399 85.3654 154.302 85.4951 154.166 85.6332C154.031 85.7714 153.85 85.889 153.625 85.986C153.399 86.0829 153.124 86.1314 152.799 86.1314ZM152.93 85.3605C153.269 85.3605 153.555 85.2939 153.788 85.1605C154.023 85.0272 154.2 84.8551 154.319 84.6442C154.44 84.4332 154.501 84.2114 154.501 83.9787V83.1932C154.465 83.2369 154.385 83.2769 154.261 83.3132C154.14 83.3472 153.999 83.3775 153.839 83.4042C153.682 83.4284 153.528 83.4502 153.377 83.4696C153.229 83.4866 153.109 83.5011 153.017 83.5132C152.794 83.5423 152.586 83.5896 152.392 83.6551C152.2 83.7181 152.045 83.8139 151.926 83.9423C151.81 84.0684 151.752 84.2405 151.752 84.4587C151.752 84.7569 151.862 84.9823 152.083 85.1351C152.306 85.2854 152.588 85.3605 152.93 85.3605ZM157.784 82.6405V86.0005H156.925V80.4151H157.755V81.2878H157.827C157.958 81.0042 158.157 80.7763 158.424 80.6042C158.69 80.4296 159.035 80.3423 159.456 80.3423C159.835 80.3423 160.165 80.4199 160.449 80.5751C160.733 80.7278 160.953 80.9605 161.111 81.2732C161.268 81.5835 161.347 81.9763 161.347 82.4514V86.0005H160.489V82.5096C160.489 82.0708 160.375 81.729 160.147 81.4842C159.919 81.2369 159.607 81.1132 159.209 81.1132C158.935 81.1132 158.69 81.1726 158.475 81.2914C158.261 81.4102 158.093 81.5835 157.969 81.8114C157.845 82.0393 157.784 82.3157 157.784 82.6405Z" fill="white"/>
</svg>
